<svg xmlns="http://www.w3.org/2000/svg" xmlns:xlink="http://www.w3.org/1999/xlink" width="40" zoomAndPan="magnify" viewBox="0 0 30 30.000001" height="40" preserveAspectRatio="xMidYMid meet" version="1.0"><defs><clipPath id="4ec90e9fa6"><path d="M 2.027344 2.402344 L 28 2.402344 L 28 26.355469 L 2.027344 26.355469 Z M 2.027344 2.402344 " clip-rule="nonzero"/></clipPath></defs><g clip-path="url(#4ec90e9fa6)"><path fill="#ffffff" d="M 27.964844 10.226562 C 27.960938 9.992188 27.917969 9.769531 27.832031 9.554688 C 27.746094 9.339844 27.621094 9.148438 27.460938 8.984375 C 27.300781 8.816406 27.117188 8.683594 26.90625 8.589844 C 26.695312 8.492188 26.472656 8.441406 26.242188 8.429688 C 25.839844 8.414062 25.765625 8.261719 25.769531 7.902344 C 25.789062 6.757812 25.785156 5.609375 25.769531 4.464844 C 25.757812 3.269531 24.90625 2.429688 23.726562 2.429688 C 21.140625 2.429688 18.550781 2.429688 15.964844 2.429688 C 14.84375 2.429688 14.015625 3.253906 14.003906 4.371094 C 13.996094 5.492188 13.980469 6.632812 14.011719 7.761719 C 14.023438 8.191406 13.929688 8.335938 13.460938 8.332031 C 10.367188 8.308594 7.273438 8.316406 4.179688 8.320312 C 2.855469 8.324219 2.03125 9.128906 2.03125 10.460938 C 2.023438 15.078125 2.023438 19.691406 2.035156 24.308594 C 2.035156 25.710938 2.941406 26.601562 4.339844 26.601562 C 7.894531 26.601562 11.449219 26.601562 15 26.601562 C 18.570312 26.601562 22.140625 26.601562 25.707031 26.601562 C 27.003906 26.601562 27.957031 25.722656 27.957031 24.515625 C 27.964844 19.75 27.964844 14.988281 27.964844 10.226562 Z M 26.289062 9.234375 C 26.457031 9.292969 26.617188 9.371094 26.761719 9.476562 C 27.03125 9.65625 27.117188 9.820312 26.742188 10.015625 C 26.421875 10.191406 26.140625 10.4375 25.785156 10.695312 C 25.785156 10.277344 25.8125 9.953125 25.777344 9.632812 C 25.726562 9.179688 25.957031 9.136719 26.289062 9.234375 Z M 14.8125 4.640625 C 14.8125 3.703125 15.21875 3.28125 16.148438 3.277344 C 18.632812 3.269531 21.121094 3.269531 23.609375 3.277344 C 24.523438 3.277344 24.929688 3.683594 24.9375 4.597656 C 24.949219 6.820312 24.953125 9.046875 24.945312 11.273438 C 24.945312 11.972656 24.566406 12.367188 23.867188 12.390625 C 23.210938 12.414062 22.554688 12.417969 21.902344 12.390625 C 21.421875 12.363281 21.003906 12.511719 20.648438 12.832031 C 19.9375 13.429688 19.207031 13.996094 18.425781 14.621094 C 18.425781 14.039062 18.414062 13.523438 18.425781 13.007812 C 18.441406 12.566406 18.238281 12.382812 17.808594 12.390625 C 17.21875 12.40625 16.628906 12.414062 16.042969 12.40625 C 15.207031 12.402344 14.808594 12 14.808594 11.167969 C 14.808594 8.992188 14.808594 6.816406 14.8125 4.640625 Z M 3.324219 9.390625 C 3.585938 9.207031 3.875 9.113281 4.195312 9.113281 C 7.339844 9.113281 10.480469 9.113281 13.625 9.105469 C 13.929688 9.105469 14.019531 9.1875 14.007812 9.492188 C 13.988281 10.128906 13.996094 10.765625 14.007812 11.40625 C 14.027344 12.476562 14.800781 13.246094 15.871094 13.253906 C 16.332031 13.257812 16.789062 13.265625 17.246094 13.25 C 17.488281 13.238281 17.5625 13.328125 17.554688 13.558594 C 17.539062 13.984375 17.554688 14.40625 17.546875 14.832031 C 17.546875 15.167969 17.546875 15.523438 17.90625 15.671875 C 18.261719 15.824219 18.566406 15.664062 18.847656 15.429688 C 19.539062 14.855469 20.269531 14.320312 20.933594 13.714844 C 21.398438 13.292969 21.890625 13.144531 22.554688 13.289062 C 21.648438 14.304688 20.609375 15.097656 19.59375 15.914062 C 18.398438 16.878906 17.191406 17.835938 16.070312 18.886719 C 15.300781 19.609375 14.773438 19.628906 13.980469 18.90625 C 10.523438 15.769531 6.851562 12.890625 3.285156 9.890625 C 3.003906 9.652344 3.085938 9.550781 3.324219 9.390625 Z M 2.847656 10.617188 C 3.699219 11.324219 4.515625 11.992188 5.324219 12.667969 C 7.171875 14.207031 9.007812 15.761719 10.871094 17.28125 C 11.1875 17.542969 11.15625 17.644531 10.886719 17.886719 C 8.746094 19.789062 6.539062 21.613281 4.359375 23.46875 C 3.882812 23.878906 3.398438 24.28125 2.847656 24.75 Z M 26.480469 25.601562 C 26.148438 25.753906 25.800781 25.828125 25.433594 25.816406 C 21.945312 25.8125 18.460938 25.8125 14.972656 25.816406 L 4.699219 25.816406 C 4.554688 25.824219 4.40625 25.824219 4.257812 25.8125 C 3.949219 25.777344 3.546875 25.742188 3.4375 25.476562 C 3.351562 25.265625 3.742188 25.113281 3.929688 24.957031 C 6.476562 22.773438 9.035156 20.601562 11.578125 18.414062 C 11.835938 18.195312 11.964844 18.199219 12.199219 18.425781 C 12.675781 18.894531 13.175781 19.34375 13.695312 19.765625 C 14.578125 20.492188 15.597656 20.449219 16.453125 19.691406 C 16.929688 19.265625 17.414062 18.855469 17.878906 18.417969 C 18.054688 18.253906 18.15625 18.273438 18.324219 18.417969 C 21.027344 20.746094 23.769531 23.019531 26.539062 25.273438 C 26.765625 25.457031 26.644531 25.523438 26.480469 25.601562 Z M 27.144531 24.703125 C 26.257812 23.96875 25.433594 23.285156 24.613281 22.597656 C 22.820312 21.101562 21.027344 19.601562 19.234375 18.097656 C 18.753906 17.699219 18.75 17.695312 19.257812 17.285156 C 20.609375 16.199219 21.988281 15.148438 23.195312 13.894531 C 23.527344 13.546875 23.796875 13.199219 24.390625 13.191406 C 24.863281 13.1875 25.292969 12.816406 25.476562 12.367188 C 25.792969 11.582031 26.511719 11.285156 27.144531 10.75 Z M 27.144531 24.703125 " fill-opacity="1" fill-rule="nonzero"/></g><path fill="#ffffff" d="M 19.996094 11.183594 C 20.433594 11.207031 20.855469 11.128906 21.253906 10.9375 C 21.484375 10.832031 21.714844 10.683594 21.578125 10.382812 C 21.441406 10.078125 21.203125 10.121094 20.957031 10.246094 C 20.707031 10.375 20.441406 10.453125 20.164062 10.480469 C 18.777344 10.613281 17.472656 9.582031 17.261719 8.191406 C 17.050781 6.804688 18.019531 5.386719 19.378906 5.089844 C 20.789062 4.78125 22.085938 5.550781 22.484375 6.957031 C 22.625 7.453125 22.648438 7.960938 22.332031 8.414062 C 22.160156 8.664062 21.90625 8.789062 21.605469 8.695312 C 21.332031 8.609375 21.347656 8.351562 21.339844 8.125 C 21.335938 7.664062 21.351562 7.207031 21.332031 6.75 C 21.316406 6.414062 21.148438 6.195312 20.789062 6.375 C 20.625 6.457031 20.53125 6.414062 20.394531 6.355469 C 19.679688 6.046875 18.980469 6.234375 18.570312 6.832031 C 18.105469 7.511719 18.160156 8.503906 18.691406 9.058594 C 19.199219 9.582031 19.953125 9.664062 20.617188 9.230469 C 20.789062 9.117188 20.886719 9.09375 21.082031 9.207031 C 21.867188 9.671875 22.746094 9.386719 23.117188 8.550781 C 23.3125 8.105469 23.367188 7.640625 23.289062 7.15625 C 23.226562 6.722656 23.085938 6.320312 22.863281 5.941406 C 22.644531 5.5625 22.359375 5.242188 22.011719 4.972656 C 21.664062 4.707031 21.277344 4.515625 20.855469 4.398438 C 20.433594 4.285156 20.003906 4.253906 19.570312 4.304688 C 17.804688 4.503906 16.40625 6.179688 16.511719 7.972656 C 16.621094 9.824219 18.058594 11.175781 19.996094 11.183594 Z M 19.742188 8.78125 C 19.285156 8.78125 18.992188 8.425781 18.992188 7.875 C 18.992188 7.300781 19.28125 6.957031 19.769531 6.945312 C 20.289062 6.933594 20.589844 7.246094 20.59375 7.8125 C 20.601562 8.414062 20.277344 8.78125 19.742188 8.78125 Z M 19.742188 8.78125 " fill-opacity="1" fill-rule="nonzero"/></svg>