<svg xmlns="http://www.w3.org/2000/svg" xmlns:xlink="http://www.w3.org/1999/xlink" width="240" zoomAndPan="magnify" viewBox="0 0 180 179.999997" height="240" preserveAspectRatio="xMidYMid meet" version="1.0"><defs><clipPath id="598ece332f"><path d="M 28.484375 66 L 133 66 L 133 142 L 28.484375 142 Z M 28.484375 66 " clip-rule="nonzero"/></clipPath><clipPath id="d60ff93b92"><path d="M 123 19.046875 L 126 19.046875 L 126 22 L 123 22 Z M 123 19.046875 " clip-rule="nonzero"/></clipPath><clipPath id="4f106f81e2"><path d="M 149 139 L 151.484375 139 L 151.484375 141 L 149 141 Z M 149 139 " clip-rule="nonzero"/></clipPath><clipPath id="5dbe6fd413"><path d="M 115 135 L 129 135 L 129 160.796875 L 115 160.796875 Z M 115 135 " clip-rule="nonzero"/></clipPath></defs><path fill="#b99876" d="M 147.652344 139.703125 C 147.578125 139.703125 147.503906 139.683594 147.441406 139.640625 C 147.375 139.601562 147.324219 139.546875 147.292969 139.480469 C 147.257812 139.410156 147.246094 139.335938 147.253906 139.261719 C 147.261719 139.1875 147.285156 139.117188 147.332031 139.058594 C 147.980469 138.207031 148.25 135.167969 148.410156 133.355469 C 148.429688 133.128906 148.449219 132.917969 148.464844 132.71875 C 149.546875 121.066406 147.90625 107.042969 144.28125 96.988281 C 143.445312 94.65625 142.402344 92.3125 140.488281 90.960938 C 138.753906 89.742188 136.5625 89.464844 134.28125 89.269531 C 127.484375 88.691406 121.0625 88.144531 114.085938 88.578125 C 114.03125 88.582031 113.980469 88.574219 113.929688 88.558594 C 113.878906 88.539062 113.832031 88.515625 113.792969 88.480469 C 113.753906 88.445312 113.71875 88.402344 113.695312 88.355469 C 113.675781 88.304688 113.660156 88.253906 113.65625 88.203125 C 113.652344 88.148438 113.660156 88.097656 113.679688 88.046875 C 113.695312 87.996094 113.722656 87.949219 113.757812 87.910156 C 113.792969 87.871094 113.835938 87.835938 113.882812 87.8125 C 113.929688 87.789062 113.980469 87.777344 114.035156 87.773438 C 121.070312 87.332031 127.523438 87.882812 134.351562 88.464844 C 136.652344 88.664062 139.054688 88.96875 140.949219 90.304688 C 143.046875 91.78125 144.15625 94.257812 145.042969 96.710938 C 148.699219 106.867188 150.359375 121.03125 149.269531 132.789062 C 149.25 132.992188 149.230469 133.191406 149.210938 133.421875 C 148.976562 136.101562 148.703125 138.582031 147.972656 139.542969 C 147.9375 139.589844 147.890625 139.632812 147.832031 139.660156 C 147.777344 139.6875 147.714844 139.703125 147.652344 139.703125 Z M 147.652344 139.703125 " fill-opacity="1" fill-rule="nonzero"/><path fill="#b99876" d="M 112.023438 95.289062 C 113.117188 108.804688 115.949219 126.558594 115.695312 138.320312 L 103.421875 138.886719 C 103.179688 138.898438 107.648438 92.773438 107.527344 94.007812 L 109.90625 93.871094 C 110.71875 93.871094 111.863281 93.257812 112.023438 95.289062 Z M 112.023438 95.289062 " fill-opacity="1" fill-rule="nonzero"/><path fill="#000000" d="M 108.742188 108.316406 C 108.648438 108.316406 108.558594 108.285156 108.484375 108.222656 C 108.410156 108.164062 108.363281 108.082031 108.347656 107.988281 C 108.328125 107.898438 108.34375 107.800781 108.390625 107.71875 C 108.4375 107.636719 108.507812 107.574219 108.597656 107.539062 L 113.710938 105.570312 C 113.8125 105.53125 113.925781 105.53125 114.019531 105.574219 C 114.121094 105.621094 114.195312 105.699219 114.234375 105.800781 C 114.273438 105.898438 114.269531 106.011719 114.226562 106.109375 C 114.183594 106.203125 114.101562 106.28125 114.003906 106.320312 L 108.886719 108.289062 C 108.839844 108.308594 108.789062 108.316406 108.742188 108.316406 Z M 108.742188 108.316406 " fill-opacity="1" fill-rule="nonzero"/><path fill="#000000" d="M 108.480469 111.164062 C 108.386719 111.164062 108.296875 111.128906 108.226562 111.070312 C 108.152344 111.011719 108.105469 110.929688 108.085938 110.835938 C 108.070312 110.742188 108.085938 110.648438 108.128906 110.566406 C 108.175781 110.484375 108.246094 110.421875 108.335938 110.386719 L 113.558594 108.347656 C 113.609375 108.328125 113.664062 108.320312 113.714844 108.320312 C 113.769531 108.320312 113.820312 108.332031 113.867188 108.355469 C 113.917969 108.375 113.960938 108.40625 113.996094 108.445312 C 114.035156 108.484375 114.0625 108.527344 114.082031 108.578125 C 114.101562 108.625 114.109375 108.679688 114.109375 108.730469 C 114.109375 108.785156 114.097656 108.835938 114.074219 108.886719 C 114.054688 108.933594 114.023438 108.976562 113.984375 109.015625 C 113.945312 109.050781 113.902344 109.078125 113.851562 109.097656 L 108.628906 111.136719 C 108.582031 111.15625 108.53125 111.164062 108.480469 111.164062 Z M 108.480469 111.164062 " fill-opacity="1" fill-rule="nonzero"/><path fill="#f5d7b5" d="M 85.390625 55.449219 C 85.324219 56.859375 84.949219 58.710938 83.542969 58.820312 C 82.933594 58.871094 82.371094 58.527344 81.804688 58.292969 C 79.261719 57.25 75.988281 58.726562 75.089844 61.324219 C 74.191406 63.921875 75.851562 67.105469 78.496094 67.855469 C 80.496094 68.425781 82.773438 67.75 84.648438 68.65625 C 86.0625 69.34375 86.933594 70.789062 87.597656 72.21875 C 88.84375 74.902344 89.648438 77.777344 89.972656 80.71875 C 93.621094 82.21875 97.707031 82.078125 101.648438 81.914062 C 107.488281 81.667969 113.316406 81.425781 119.144531 81.109375 C 121.917969 80.957031 124.757812 80.773438 127.296875 79.652344 C 129.839844 78.527344 132.054688 76.257812 132.3125 73.496094 C 132.417969 72.359375 132.195312 71.214844 132.289062 70.074219 C 132.382812 68.933594 132.914062 67.710938 133.980469 67.308594 C 134.945312 66.941406 136.007812 67.351562 137.019531 67.550781 C 140.363281 68.210938 144.210938 65.917969 144.625 62.535156 C 145.039062 59.15625 141.101562 55.875 138.042969 57.367188 C 137.082031 57.832031 136.292969 58.65625 135.410156 59.242188 C 135.253906 59.34375 135.070312 59.402344 134.882812 59.414062 C 134.695312 59.421875 134.511719 59.382812 134.34375 59.296875 C 134.175781 59.210938 134.035156 59.082031 133.9375 58.925781 C 133.835938 58.765625 133.78125 58.585938 133.769531 58.398438 C 133.5625 53.339844 132.8125 48.316406 131.539062 43.417969 C 130.667969 40.054688 129.226562 36.386719 126.042969 34.996094 C 124.636719 34.378906 123.0625 34.300781 121.53125 34.253906 C 113.667969 34.019531 105.804688 34.417969 98.007812 35.441406 C 95.539062 35.761719 92.011719 35.742188 90.101562 37.632812 C 88.6875 39.042969 88.382812 41.355469 87.8125 43.175781 C 86.550781 47.214844 85.582031 51.207031 85.390625 55.449219 Z M 85.390625 55.449219 " fill-opacity="1" fill-rule="nonzero"/><path fill="#3b2a1a" d="M 110.058594 75.691406 C 108.800781 75.691406 107.800781 75.40625 106.964844 75.167969 C 106.445312 75.015625 105.996094 74.886719 105.605469 74.871094 C 105.554688 74.867188 105.503906 74.855469 105.453125 74.832031 C 105.40625 74.808594 105.363281 74.777344 105.328125 74.738281 C 105.292969 74.699219 105.265625 74.652344 105.246094 74.601562 C 105.230469 74.554688 105.222656 74.5 105.222656 74.449219 C 105.226562 74.394531 105.238281 74.34375 105.261719 74.296875 C 105.285156 74.246094 105.316406 74.203125 105.355469 74.167969 C 105.394531 74.132812 105.4375 74.105469 105.488281 74.085938 C 105.539062 74.070312 105.59375 74.0625 105.644531 74.066406 C 106.125 74.085938 106.617188 74.230469 107.1875 74.390625 C 108.667969 74.816406 110.703125 75.398438 113.894531 73.984375 C 113.996094 73.941406 114.105469 73.9375 114.207031 73.976562 C 114.304688 74.015625 114.386719 74.089844 114.425781 74.1875 C 114.472656 74.285156 114.472656 74.398438 114.4375 74.496094 C 114.398438 74.597656 114.320312 74.675781 114.222656 74.722656 C 112.566406 75.453125 111.207031 75.691406 110.058594 75.691406 Z M 110.058594 75.691406 " fill-opacity="1" fill-rule="nonzero"/><path fill="#000000" d="M 96.863281 67.890625 C 96.632812 67.890625 96.40625 67.886719 96.183594 67.878906 C 92.902344 67.757812 90.605469 66.792969 89.363281 65.003906 C 88.402344 63.621094 88.195312 61.839844 88.03125 60.40625 C 88.011719 60.25 87.984375 60.070312 87.957031 59.878906 C 87.804688 58.789062 87.589844 57.296875 88.25 56.386719 C 88.808594 55.617188 89.835938 55.640625 90.585938 55.65625 C 90.699219 55.65625 90.8125 55.660156 90.917969 55.65625 L 103.492188 55.574219 C 103.71875 55.574219 104.054688 55.574219 104.34375 55.757812 C 104.941406 56.136719 104.871094 56.949219 104.847656 57.257812 C 104.683594 59.171875 104.511719 61.152344 103.808594 63.011719 C 103 65.125 101.5625 66.722656 99.84375 67.402344 C 98.859375 67.796875 97.816406 67.890625 96.863281 67.890625 Z M 88.832031 60.316406 C 88.992188 61.722656 89.179688 63.328125 90.023438 64.542969 C 91.117188 66.109375 93.199219 66.957031 96.214844 67.070312 C 97.253906 67.109375 98.460938 67.085938 99.546875 66.65625 C 101.058594 66.058594 102.332031 64.625 103.054688 62.730469 C 103.71875 60.976562 103.882812 59.054688 104.042969 57.195312 C 104.082031 56.773438 104.035156 56.519531 103.914062 56.441406 C 103.824219 56.382812 103.644531 56.386719 103.5 56.386719 L 90.917969 56.464844 C 90.808594 56.464844 90.6875 56.464844 90.5625 56.464844 C 89.929688 56.453125 89.207031 56.4375 88.898438 56.863281 C 88.429688 57.511719 88.617188 58.816406 88.753906 59.769531 C 88.78125 59.96875 88.804688 60.152344 88.828125 60.320312 Z M 88.832031 60.316406 " fill-opacity="1" fill-rule="nonzero"/><path fill="#3b2a1a" d="M 105.890625 71.820312 L 105.878906 71.820312 C 105.773438 71.820312 105.671875 71.773438 105.597656 71.695312 C 105.523438 71.617188 105.484375 71.515625 105.488281 71.410156 C 105.507812 70.585938 105.839844 69.851562 106.160156 69.144531 C 106.328125 68.796875 106.476562 68.4375 106.601562 68.074219 C 106.988281 66.882812 106.902344 65.539062 106.828125 64.238281 C 106.726562 62.570312 106.625 60.851562 107.457031 59.339844 C 107.507812 59.25 107.597656 59.183594 107.699219 59.15625 C 107.800781 59.125 107.90625 59.140625 108 59.191406 C 108.09375 59.242188 108.160156 59.328125 108.191406 59.425781 C 108.222656 59.527344 108.210938 59.636719 108.160156 59.730469 C 107.441406 61.039062 107.53125 62.566406 107.632812 64.1875 C 107.714844 65.566406 107.800781 66.988281 107.367188 68.324219 C 107.234375 68.714844 107.074219 69.101562 106.894531 69.476562 C 106.59375 70.140625 106.308594 70.769531 106.289062 71.429688 C 106.289062 71.535156 106.246094 71.632812 106.171875 71.707031 C 106.09375 71.78125 105.996094 71.820312 105.890625 71.820312 Z M 105.890625 71.820312 " fill-opacity="1" fill-rule="nonzero"/><path fill="#000000" d="M 110.078125 92.796875 C 109.804688 92.792969 109.535156 92.773438 109.265625 92.730469 C 108.9375 92.683594 108.914062 92.355469 108.902344 92.203125 C 108.894531 92.101562 108.886719 91.949219 108.878906 91.75 C 108.867188 91.410156 108.851562 90.921875 108.839844 90.296875 C 108.816406 89.164062 108.800781 87.816406 108.789062 86.921875 C 108.785156 86.460938 108.78125 86.117188 108.777344 86.007812 L 108.703125 82.8125 C 108.703125 82.609375 108.679688 82.351562 108.65625 82.078125 C 108.59375 81.25 108.519531 80.3125 108.730469 79.71875 C 108.769531 79.621094 108.84375 79.542969 108.941406 79.5 C 109.035156 79.457031 109.144531 79.453125 109.242188 79.488281 C 109.339844 79.523438 109.421875 79.597656 109.46875 79.691406 C 109.515625 79.785156 109.523438 79.890625 109.488281 79.992188 C 109.335938 80.421875 109.40625 81.34375 109.460938 82.015625 C 109.484375 82.300781 109.503906 82.570312 109.507812 82.792969 L 109.582031 85.988281 C 109.582031 86.105469 109.589844 86.445312 109.59375 86.914062 C 109.609375 88.109375 109.648438 91.046875 109.695312 91.972656 C 110.839844 92.085938 111.480469 91.753906 111.757812 90.921875 C 111.855469 90.554688 111.917969 90.175781 111.933594 89.800781 C 112.066406 88.140625 112.097656 86.582031 112.125 84.933594 C 112.136719 84.292969 112.148438 83.625 112.167969 82.957031 C 112.171875 82.851562 112.214844 82.75 112.292969 82.675781 C 112.332031 82.640625 112.378906 82.609375 112.425781 82.59375 C 112.476562 82.574219 112.53125 82.5625 112.582031 82.566406 C 112.636719 82.566406 112.6875 82.578125 112.734375 82.601562 C 112.785156 82.621094 112.828125 82.652344 112.863281 82.691406 C 112.898438 82.730469 112.929688 82.773438 112.949219 82.824219 C 112.964844 82.875 112.976562 82.925781 112.972656 82.980469 C 112.953125 83.648438 112.941406 84.308594 112.929688 84.949219 C 112.902344 86.609375 112.871094 88.179688 112.730469 89.867188 C 112.710938 90.308594 112.636719 90.746094 112.515625 91.171875 C 112.164062 92.25 111.339844 92.796875 110.078125 92.796875 Z M 110.078125 92.796875 " fill-opacity="1" fill-rule="nonzero"/><g clip-path="url(#598ece332f)"><path fill="#52381e" d="M 126.191406 140.929688 C 127.789062 140.921875 129.484375 140.890625 130.839844 140.039062 C 132.191406 139.183594 132.972656 137.183594 131.996094 135.910156 C 131.023438 134.636719 129.121094 134.8125 127.554688 135.066406 C 120.5 136.199219 110.1875 137.074219 109.496094 135.9375 C 109.058594 135.222656 109.152344 127.628906 109.152344 123.84375 C 109.152344 119.960938 109.230469 114.210938 109.386719 109.242188 C 109.734375 98.246094 110.230469 83.433594 110.703125 73.925781 C 110.804688 71.835938 111.59375 67.460938 106.839844 67.210938 C 101.738281 66.941406 100.949219 66.898438 95.84375 66.820312 C 75.445312 66.496094 55.039062 67.246094 34.71875 69.074219 C 33.367188 69.195312 31.023438 69.355469 29.917969 70.148438 C 27.695312 71.734375 28.644531 75 28.941406 77.730469 C 29.488281 82.828125 30.15625 87.914062 30.910156 92.984375 C 31.667969 98.054688 32.503906 103.117188 33.40625 108.164062 C 34.308594 113.207031 35.269531 118.253906 36.253906 123.285156 C 36.75 125.8125 37.25 128.339844 37.757812 130.867188 C 38.246094 133.3125 38.601562 135.847656 39.269531 138.25 C 39.625 139.53125 40.273438 140.703125 41.597656 141.121094 C 42.921875 141.535156 44.402344 141.3125 45.75 141.257812 C 50.664062 141.058594 55.613281 141.191406 60.53125 141.175781 L 76.085938 141.117188 L 91.519531 141.066406 L 107.070312 141.007812 L 122.5625 140.949219 Z M 126.191406 140.929688 " fill-opacity="1" fill-rule="nonzero"/></g><path fill="#b99876" d="M 40.796875 115.746094 C 40.75 115.746094 40.699219 115.734375 40.652344 115.714844 C 40.550781 115.675781 40.472656 115.597656 40.429688 115.5 C 40.386719 115.402344 40.386719 115.292969 40.425781 115.195312 C 40.863281 114.074219 40.179688 113.304688 39.019531 112.136719 C 38.75 111.863281 38.472656 111.582031 38.210938 111.289062 C 37.796875 110.820312 37.324219 110.289062 37.039062 109.644531 C 36.414062 108.242188 36.710938 106.445312 37.84375 104.714844 C 41.65625 98.90625 41.375 97.03125 40.828125 96.125 C 40.773438 96.035156 40.757812 95.925781 40.785156 95.820312 C 40.808594 95.714844 40.875 95.628906 40.96875 95.574219 C 41.058594 95.515625 41.167969 95.5 41.273438 95.527344 C 41.375 95.554688 41.464844 95.621094 41.519531 95.710938 C 42.273438 96.96875 42.511719 99.074219 38.519531 105.15625 C 38.054688 105.867188 37.046875 107.691406 37.773438 109.324219 C 38.007812 109.851562 38.417969 110.3125 38.8125 110.757812 C 39.058594 111.039062 39.332031 111.308594 39.589844 111.574219 C 40.691406 112.679688 41.828125 113.828125 41.171875 115.492188 C 41.144531 115.566406 41.089844 115.628906 41.023438 115.675781 C 40.957031 115.71875 40.878906 115.746094 40.796875 115.746094 Z M 40.796875 115.746094 " fill-opacity="1" fill-rule="nonzero"/><path fill="#b99876" d="M 44.683594 99.242188 C 44.621094 99.242188 44.558594 99.226562 44.5 99.199219 C 44.453125 99.175781 44.414062 99.140625 44.378906 99.101562 C 44.34375 99.0625 44.316406 99.015625 44.300781 98.964844 C 44.285156 98.914062 44.277344 98.863281 44.28125 98.808594 C 44.285156 98.757812 44.300781 98.703125 44.324219 98.65625 C 46.753906 93.847656 43.761719 89.921875 42.363281 88.457031 C 42.296875 88.378906 42.261719 88.277344 42.265625 88.175781 C 42.269531 88.070312 42.316406 87.972656 42.390625 87.902344 C 42.464844 87.828125 42.566406 87.789062 42.667969 87.789062 C 42.773438 87.789062 42.871094 87.828125 42.945312 87.902344 C 44.128906 89.140625 47.777344 93.605469 45.042969 99.019531 C 45.007812 99.085938 44.957031 99.144531 44.894531 99.183594 C 44.832031 99.222656 44.757812 99.242188 44.683594 99.242188 Z M 44.683594 99.242188 " fill-opacity="1" fill-rule="nonzero"/><path fill="#b99876" d="M 44.851562 118.191406 C 44.773438 118.191406 44.699219 118.171875 44.632812 118.128906 C 44.566406 118.085938 44.515625 118.023438 44.484375 117.953125 C 44.449219 117.882812 44.441406 117.804688 44.453125 117.726562 C 44.464844 117.648438 44.5 117.578125 44.550781 117.519531 C 45.648438 116.296875 45.179688 114.230469 44.222656 112.722656 C 44.089844 112.515625 43.949219 112.308594 43.800781 112.085938 C 42.875 110.6875 41.820312 109.105469 42.433594 107.449219 C 42.449219 107.398438 42.480469 107.351562 42.515625 107.3125 C 42.550781 107.277344 42.59375 107.246094 42.640625 107.222656 C 42.691406 107.199219 42.742188 107.1875 42.796875 107.1875 C 42.847656 107.183594 42.902344 107.191406 42.949219 107.210938 C 43 107.230469 43.046875 107.257812 43.085938 107.292969 C 43.125 107.328125 43.15625 107.371094 43.175781 107.417969 C 43.199219 107.46875 43.210938 107.519531 43.214844 107.574219 C 43.214844 107.625 43.207031 107.679688 43.1875 107.730469 C 42.71875 109 43.609375 110.347656 44.472656 111.636719 C 44.617188 111.855469 44.761719 112.078125 44.902344 112.292969 C 45.9375 113.925781 46.625 116.414062 45.148438 118.058594 C 45.113281 118.101562 45.066406 118.132812 45.015625 118.15625 C 44.964844 118.179688 44.910156 118.191406 44.851562 118.191406 Z M 44.851562 118.191406 " fill-opacity="1" fill-rule="nonzero"/><path fill="#b99876" d="M 68.40625 104.453125 C 67.855469 104.457031 67.316406 104.3125 66.839844 104.03125 C 66.054688 103.558594 65.539062 102.636719 65.5 101.625 C 65.46875 101.085938 65.59375 100.554688 65.863281 100.085938 C 66.265625 98.722656 67.636719 97.703125 69.074219 97.792969 C 70.664062 97.890625 72.015625 99.316406 72.023438 100.910156 C 72.019531 101.566406 71.832031 102.203125 71.480469 102.753906 C 71.152344 103.269531 70.699219 103.699219 70.160156 103.996094 C 69.625 104.289062 69.019531 104.449219 68.40625 104.453125 Z M 66.375 100.929688 C 66.316406 101.144531 66.292969 101.371094 66.304688 101.59375 C 66.332031 102.339844 66.699219 103.003906 67.257812 103.34375 C 68.363281 104.011719 70.054688 103.527344 70.800781 102.328125 C 71.070312 101.90625 71.214844 101.417969 71.21875 100.917969 C 71.214844 99.753906 70.191406 98.671875 69.027344 98.601562 C 68.285156 98.558594 67.550781 98.929688 67.078125 99.507812 C 67.132812 99.597656 67.15625 99.703125 67.136719 99.804688 C 67.117188 99.90625 67.0625 99.996094 66.976562 100.058594 C 66.832031 100.160156 66.710938 100.285156 66.613281 100.429688 C 66.597656 100.5 66.582031 100.574219 66.574219 100.644531 C 66.5625 100.703125 66.542969 100.757812 66.507812 100.808594 C 66.472656 100.859375 66.429688 100.898438 66.375 100.925781 Z M 66.375 100.929688 " fill-opacity="1" fill-rule="nonzero"/><path fill="#000000" d="M 139.40625 65.644531 C 139.296875 65.644531 139.195312 65.605469 139.117188 65.53125 C 139.042969 65.457031 139 65.355469 138.996094 65.246094 C 138.996094 65.140625 139.035156 65.039062 139.109375 64.960938 C 139.183594 64.882812 139.285156 64.839844 139.394531 64.839844 C 139.921875 64.824219 140.433594 64.640625 140.847656 64.308594 C 141.261719 63.976562 141.554688 63.519531 141.683594 63.003906 C 141.808594 62.492188 141.765625 61.949219 141.554688 61.464844 C 141.34375 60.976562 140.980469 60.574219 140.515625 60.316406 C 140.421875 60.261719 140.355469 60.171875 140.324219 60.070312 C 140.296875 59.964844 140.3125 59.855469 140.367188 59.761719 C 140.417969 59.667969 140.507812 59.597656 140.609375 59.570312 C 140.714844 59.542969 140.824219 59.558594 140.917969 59.609375 C 142.125 60.296875 142.792969 61.839844 142.457031 63.191406 C 142.121094 64.546875 140.816406 65.597656 139.421875 65.640625 Z M 139.40625 65.644531 " fill-opacity="1" fill-rule="nonzero"/><path fill="#000000" d="M 79.914062 65.878906 C 79.492188 65.867188 79.085938 65.710938 78.769531 65.429688 C 78.125 64.890625 77.722656 63.980469 77.726562 63.050781 C 77.726562 62.125 78.128906 61.21875 78.777344 60.683594 C 79.214844 60.324219 79.71875 60.183594 80.199219 60.273438 C 80.25 60.28125 80.300781 60.300781 80.34375 60.332031 C 80.386719 60.359375 80.425781 60.398438 80.457031 60.441406 C 80.484375 60.484375 80.507812 60.535156 80.515625 60.585938 C 80.527344 60.636719 80.527344 60.691406 80.519531 60.742188 C 80.507812 60.796875 80.488281 60.84375 80.457031 60.890625 C 80.429688 60.933594 80.390625 60.972656 80.347656 61 C 80.304688 61.03125 80.253906 61.050781 80.203125 61.0625 C 80.152344 61.074219 80.097656 61.074219 80.046875 61.0625 C 79.738281 61.003906 79.464844 61.164062 79.289062 61.304688 C 78.832031 61.6875 78.535156 62.371094 78.53125 63.054688 C 78.53125 63.738281 78.824219 64.425781 79.285156 64.8125 C 79.457031 64.957031 79.730469 65.121094 80.039062 65.0625 C 80.144531 65.042969 80.253906 65.066406 80.339844 65.125 C 80.429688 65.1875 80.488281 65.28125 80.507812 65.386719 C 80.527344 65.492188 80.503906 65.597656 80.441406 65.6875 C 80.382812 65.773438 80.289062 65.835938 80.183594 65.855469 C 80.09375 65.871094 80.003906 65.878906 79.914062 65.878906 Z M 79.914062 65.878906 " fill-opacity="1" fill-rule="nonzero"/><path fill="#000000" d="M 119.703125 68.625 L 119.671875 68.625 C 118.046875 68.625 116.824219 68.375 115.816406 67.847656 C 114.035156 66.910156 112.75 64.90625 112.371094 62.484375 C 112.148438 61.050781 112.1875 59.492188 112.503906 57.4375 C 112.621094 56.660156 112.785156 55.597656 114.007812 55.355469 C 115.011719 55.152344 116.121094 55.1875 117.191406 55.226562 C 117.617188 55.238281 118.019531 55.253906 118.410156 55.25 C 121.328125 55.238281 124.296875 55.308594 127.242188 55.460938 C 127.484375 55.476562 127.855469 55.496094 128.148438 55.71875 C 128.683594 56.121094 128.628906 56.882812 128.601562 57.207031 C 128.453125 59.152344 128.300781 61.167969 127.636719 63.078125 C 126.886719 65.253906 125.554688 66.925781 123.882812 67.785156 C 122.769531 68.359375 121.4375 68.625 119.703125 68.625 Z M 113.171875 62.359375 C 113.507812 64.53125 114.640625 66.316406 116.191406 67.132812 C 117.074219 67.597656 118.183594 67.816406 119.671875 67.820312 C 121.289062 67.820312 122.511719 67.585938 123.519531 67.066406 C 125.003906 66.304688 126.199219 64.796875 126.878906 62.816406 C 127.503906 61.003906 127.65625 59.042969 127.804688 57.144531 C 127.828125 56.84375 127.832031 56.484375 127.667969 56.363281 C 127.574219 56.292969 127.398438 56.277344 127.199219 56.265625 C 124.269531 56.117188 121.3125 56.046875 118.410156 56.054688 C 118.007812 56.054688 117.578125 56.042969 117.164062 56.027344 C 116.140625 55.996094 115.082031 55.960938 114.164062 56.144531 C 113.558594 56.261719 113.429688 56.6875 113.296875 57.558594 C 112.996094 59.53125 112.953125 61.011719 113.164062 62.359375 Z M 113.171875 62.359375 " fill-opacity="1" fill-rule="nonzero"/><path fill="#000000" d="M 113.589844 59.625 C 113.507812 59.625 113.425781 59.597656 113.359375 59.550781 C 111.898438 58.503906 110.15625 57.925781 108.359375 57.886719 C 106.5625 57.847656 104.796875 58.351562 103.292969 59.332031 C 103.203125 59.390625 103.09375 59.410156 102.988281 59.386719 C 102.886719 59.367188 102.792969 59.304688 102.734375 59.214844 C 102.679688 59.125 102.65625 59.015625 102.679688 58.910156 C 102.703125 58.804688 102.765625 58.714844 102.855469 58.65625 C 104.492188 57.585938 106.417969 57.039062 108.371094 57.082031 C 110.328125 57.121094 112.226562 57.753906 113.816406 58.894531 C 113.886719 58.941406 113.941406 59.011719 113.96875 59.09375 C 113.996094 59.175781 113.996094 59.261719 113.96875 59.34375 C 113.945312 59.425781 113.894531 59.496094 113.824219 59.546875 C 113.753906 59.597656 113.671875 59.625 113.585938 59.625 Z M 113.589844 59.625 " fill-opacity="1" fill-rule="nonzero"/><path fill="#3b2a1a" d="M 120.238281 62.742188 C 120.1875 62.742188 120.132812 62.742188 120.082031 62.742188 C 119.445312 62.707031 118.828125 62.488281 118.308594 62.113281 C 117.792969 61.742188 117.386719 61.230469 117.144531 60.640625 C 117.125 60.589844 117.117188 60.535156 117.117188 60.484375 C 117.117188 60.429688 117.128906 60.378906 117.148438 60.328125 C 117.171875 60.28125 117.203125 60.238281 117.238281 60.199219 C 117.277344 60.164062 117.320312 60.132812 117.371094 60.113281 C 117.421875 60.09375 117.472656 60.085938 117.527344 60.085938 C 117.578125 60.085938 117.632812 60.097656 117.679688 60.121094 C 117.730469 60.140625 117.773438 60.171875 117.808594 60.210938 C 117.847656 60.25 117.875 60.292969 117.894531 60.34375 C 118.074219 60.796875 118.378906 61.1875 118.773438 61.46875 C 119.167969 61.753906 119.636719 61.914062 120.121094 61.941406 C 120.605469 61.964844 121.089844 61.847656 121.511719 61.605469 C 121.929688 61.363281 122.273438 61.003906 122.496094 60.570312 C 122.519531 60.523438 122.550781 60.480469 122.59375 60.445312 C 122.632812 60.410156 122.679688 60.382812 122.730469 60.363281 C 122.78125 60.347656 122.835938 60.339844 122.890625 60.34375 C 122.945312 60.347656 122.996094 60.363281 123.042969 60.386719 C 123.089844 60.414062 123.132812 60.445312 123.167969 60.488281 C 123.203125 60.527344 123.230469 60.578125 123.246094 60.628906 C 123.257812 60.679688 123.265625 60.734375 123.257812 60.789062 C 123.253906 60.839844 123.238281 60.894531 123.210938 60.941406 C 122.925781 61.480469 122.496094 61.933594 121.972656 62.253906 C 121.449219 62.570312 120.851562 62.738281 120.238281 62.742188 Z M 120.238281 62.742188 " fill-opacity="1" fill-rule="nonzero"/><path fill="#3b2a1a" d="M 95.203125 62.980469 C 93.59375 62.980469 92.113281 61.78125 91.96875 60.304688 C 91.957031 60.199219 91.992188 60.089844 92.058594 60.007812 C 92.128906 59.925781 92.226562 59.875 92.332031 59.863281 C 92.4375 59.851562 92.546875 59.886719 92.628906 59.953125 C 92.710938 60.019531 92.765625 60.121094 92.773438 60.226562 C 92.894531 61.441406 94.253906 62.253906 95.390625 62.167969 C 96.53125 62.082031 97.695312 61.269531 98.421875 60.046875 C 98.445312 60 98.480469 59.957031 98.523438 59.921875 C 98.566406 59.890625 98.613281 59.863281 98.667969 59.851562 C 98.71875 59.835938 98.773438 59.832031 98.828125 59.839844 C 98.882812 59.847656 98.933594 59.863281 98.980469 59.890625 C 99.027344 59.917969 99.066406 59.957031 99.101562 60 C 99.132812 60.042969 99.15625 60.09375 99.167969 60.144531 C 99.179688 60.199219 99.183594 60.253906 99.171875 60.308594 C 99.164062 60.359375 99.144531 60.410156 99.113281 60.457031 C 98.246094 61.921875 96.875 62.863281 95.453125 62.972656 C 95.367188 62.976562 95.285156 62.980469 95.203125 62.980469 Z M 95.203125 62.980469 " fill-opacity="1" fill-rule="nonzero"/><path fill="#3b2a1a" d="M 92.785156 54.09375 C 92.628906 54.09375 92.46875 54.078125 92.3125 54.050781 C 91.601562 53.914062 90.886719 53.304688 90.921875 52.511719 C 90.957031 51.746094 91.589844 51.191406 92.804688 50.855469 C 94.039062 50.519531 95.253906 50.199219 96.496094 49.992188 L 96.632812 49.96875 C 98.210938 49.699219 101.148438 49.199219 102.230469 50.851562 C 102.742188 51.628906 102.523438 52.746094 101.746094 53.34375 C 100.953125 53.953125 99.890625 53.8125 99.035156 53.703125 L 98.738281 53.664062 C 97.207031 53.484375 95.65625 53.558594 94.144531 53.882812 L 93.972656 53.921875 C 93.585938 54.019531 93.1875 54.078125 92.785156 54.09375 Z M 99.28125 50.488281 C 98.363281 50.488281 97.402344 50.652344 96.769531 50.761719 L 96.632812 50.785156 C 95.425781 50.984375 94.234375 51.300781 93.019531 51.632812 C 92.441406 51.792969 91.75 52.078125 91.730469 52.546875 C 91.714844 52.886719 92.097656 53.1875 92.46875 53.257812 C 92.882812 53.335938 93.328125 53.238281 93.800781 53.132812 L 93.976562 53.097656 C 95.574219 52.753906 97.21875 52.675781 98.839844 52.867188 L 99.140625 52.902344 C 99.886719 53.003906 100.730469 53.109375 101.253906 52.703125 C 101.6875 52.371094 101.828125 51.710938 101.554688 51.292969 C 101.148438 50.671875 100.238281 50.488281 99.28125 50.488281 Z M 99.28125 50.488281 " fill-opacity="1" fill-rule="nonzero"/><path fill="#3b2a1a" d="M 115.351562 53.410156 C 114.480469 53.410156 113.503906 53.265625 113.035156 52.445312 C 112.910156 52.222656 112.84375 51.96875 112.839844 51.714844 C 112.835938 51.457031 112.898438 51.203125 113.015625 50.976562 C 113.378906 50.242188 114.246094 49.636719 115.128906 49.507812 C 115.910156 49.394531 116.695312 49.34375 117.484375 49.367188 L 117.84375 49.367188 C 119.460938 49.355469 121.730469 49.695312 123.246094 50.695312 C 124.167969 51.296875 123.972656 51.933594 123.851562 52.175781 C 123.746094 52.371094 123.585938 52.53125 123.386719 52.636719 C 122.347656 53.210938 121.15625 53.246094 120.101562 53.277344 L 115.609375 53.40625 C 115.527344 53.40625 115.441406 53.410156 115.351562 53.410156 Z M 117.179688 50.175781 C 116.535156 50.167969 115.890625 50.214844 115.25 50.3125 C 114.632812 50.398438 113.984375 50.839844 113.742188 51.335938 C 113.679688 51.445312 113.648438 51.570312 113.648438 51.695312 C 113.648438 51.820312 113.679688 51.945312 113.742188 52.054688 C 114.042969 52.582031 114.886719 52.625 115.589844 52.605469 L 120.082031 52.476562 C 121.046875 52.449219 122.132812 52.417969 123.003906 51.9375 C 123.058594 51.910156 123.109375 51.867188 123.140625 51.8125 C 123.214844 51.667969 122.96875 51.472656 122.8125 51.371094 C 121.445312 50.472656 119.289062 50.164062 117.855469 50.179688 C 117.726562 50.179688 117.605469 50.179688 117.488281 50.179688 Z M 117.179688 50.175781 " fill-opacity="1" fill-rule="nonzero"/><path fill="#000000" d="M 126.734375 57.546875 C 126.648438 57.546875 126.5625 57.519531 126.492188 57.464844 C 126.421875 57.410156 126.375 57.335938 126.351562 57.25 C 126.328125 57.164062 126.332031 57.074219 126.367188 56.992188 C 126.398438 56.910156 126.460938 56.84375 126.535156 56.796875 C 130.914062 54.234375 135.757812 52.378906 140.035156 50.742188 C 141.046875 50.355469 142.191406 49.917969 143.386719 49.835938 C 144.773438 49.75 146.007812 50.1875 146.777344 51.046875 C 147.855469 52.246094 147.800781 54.300781 146.660156 55.441406 C 145.523438 56.582031 143.46875 56.644531 142.257812 55.570312 C 142.179688 55.5 142.132812 55.398438 142.125 55.292969 C 142.117188 55.183594 142.15625 55.078125 142.226562 55 C 142.296875 54.917969 142.398438 54.871094 142.503906 54.863281 C 142.613281 54.859375 142.71875 54.894531 142.796875 54.964844 C 143.695312 55.769531 145.234375 55.726562 146.085938 54.875 C 146.941406 54.019531 146.980469 52.480469 146.171875 51.582031 C 145.578125 50.921875 144.554688 50.570312 143.433594 50.640625 C 142.363281 50.710938 141.320312 51.109375 140.316406 51.492188 C 136.070312 53.117188 131.257812 54.960938 126.9375 57.488281 C 126.878906 57.527344 126.808594 57.546875 126.734375 57.546875 Z M 126.734375 57.546875 " fill-opacity="1" fill-rule="nonzero"/><path fill="#b99876" d="M 136.082031 27.90625 C 136.242188 26.988281 136.015625 25.703125 135.085938 25.648438 C 134.6875 25.625 134.328125 25.867188 134.023438 26.121094 C 132.8125 27.136719 131.988281 28.539062 131.691406 30.09375 C 131.402344 28.179688 130.382812 26.453125 128.839844 25.28125 C 128.09375 24.71875 126.851562 24.386719 126.355469 25.179688 C 126.175781 25.472656 126.164062 25.839844 126.179688 26.1875 C 126.246094 27.515625 126.632812 28.808594 127.308594 29.953125 C 119.554688 26.035156 110.746094 24.71875 102.1875 26.207031 C 93.628906 27.695312 85.777344 31.902344 79.800781 38.207031 C 78.523438 39.554688 77.257812 41.25 77.554688 43.082031 C 77.929688 45.445312 80.628906 46.632812 82.996094 46.984375 C 86.375 47.484375 89.816406 47.15625 93.207031 46.71875 C 103.882812 45.335938 114.390625 42.878906 124.570312 39.386719 C 124.21875 43.113281 124.203125 47.589844 127.296875 49.683594 C 129.3125 51.046875 132.558594 52.042969 134.488281 50.5625 C 140.769531 45.746094 137.011719 37.144531 135.808594 35.941406 C 133.382812 33.511719 134.4375 32.242188 134.808594 31.542969 C 135.425781 30.40625 135.855469 29.179688 136.082031 27.90625 Z M 136.082031 27.90625 " fill-opacity="1" fill-rule="nonzero"/><path fill="#b99876" d="M 119.039062 100.300781 C 118.6875 100.300781 118.203125 100.050781 117.3125 99.417969 L 117.253906 99.375 C 115.105469 97.859375 113.585938 96.3125 113.085938 95.125 C 113.042969 95.027344 113.042969 94.917969 113.082031 94.816406 C 113.125 94.71875 113.199219 94.640625 113.300781 94.597656 C 113.398438 94.558594 113.507812 94.554688 113.609375 94.597656 C 113.707031 94.636719 113.785156 94.714844 113.828125 94.8125 C 114.265625 95.847656 115.71875 97.308594 117.71875 98.71875 L 117.777344 98.761719 C 118.667969 99.394531 118.949219 99.484375 119.035156 99.496094 C 119.820312 99.382812 120.558594 97.554688 120.777344 96.59375 C 121.460938 93.621094 121.574219 92.167969 121.742188 89.953125 C 121.800781 89.191406 121.867188 88.328125 121.964844 87.28125 C 121.976562 87.171875 122.027344 87.074219 122.109375 87.007812 C 122.191406 86.9375 122.300781 86.90625 122.40625 86.914062 C 122.511719 86.925781 122.613281 86.976562 122.679688 87.058594 C 122.75 87.144531 122.78125 87.25 122.769531 87.355469 C 122.667969 88.394531 122.605469 89.257812 122.546875 90.011719 C 122.375 92.257812 122.261719 93.742188 121.566406 96.777344 C 121.558594 96.808594 120.785156 100.09375 119.125 100.296875 C 119.097656 100.300781 119.066406 100.300781 119.039062 100.300781 Z M 119.039062 100.300781 " fill-opacity="1" fill-rule="nonzero"/><path fill="#b99876" d="M 133.234375 129.667969 C 133.195312 129.667969 133.15625 129.664062 133.121094 129.652344 C 133.070312 129.636719 133.019531 129.613281 132.980469 129.578125 C 132.9375 129.546875 132.902344 129.503906 132.878906 129.457031 C 132.851562 129.410156 132.835938 129.359375 132.832031 129.308594 C 132.824219 129.253906 132.832031 129.199219 132.847656 129.148438 C 133.433594 127.128906 133.601562 125.207031 133.875 122.023438 C 134.011719 120.472656 134.179688 118.542969 134.433594 116.175781 L 134.445312 116.085938 C 134.570312 114.898438 134.703125 113.671875 135.320312 112.597656 C 135.957031 111.480469 137.324219 110.539062 138.707031 110.894531 C 138.757812 110.90625 138.808594 110.929688 138.851562 110.960938 C 138.898438 110.992188 138.933594 111.03125 138.964844 111.078125 C 138.992188 111.125 139.011719 111.175781 139.019531 111.230469 C 139.027344 111.28125 139.023438 111.335938 139.007812 111.390625 C 138.996094 111.441406 138.972656 111.492188 138.9375 111.535156 C 138.90625 111.578125 138.863281 111.613281 138.816406 111.640625 C 138.769531 111.664062 138.71875 111.683594 138.664062 111.6875 C 138.609375 111.695312 138.554688 111.691406 138.503906 111.675781 C 137.523438 111.421875 136.492188 112.167969 136.019531 112.996094 C 135.488281 113.925781 135.363281 115.066406 135.246094 116.175781 L 135.234375 116.261719 C 134.980469 118.621094 134.8125 120.546875 134.679688 122.097656 C 134.398438 125.332031 134.230469 127.285156 133.621094 129.378906 C 133.59375 129.460938 133.542969 129.535156 133.472656 129.589844 C 133.40625 129.640625 133.320312 129.667969 133.234375 129.667969 Z M 133.234375 129.667969 " fill-opacity="1" fill-rule="nonzero"/><path fill="#b99876" d="M 117.367188 115.269531 C 117.285156 115.269531 117.207031 115.246094 117.140625 115.199219 C 117.074219 115.152344 117.023438 115.089844 116.992188 115.015625 C 116.640625 114.160156 116.457031 113.242188 116.453125 112.316406 C 116.453125 112.210938 116.496094 112.109375 116.570312 112.03125 C 116.644531 111.957031 116.75 111.914062 116.855469 111.914062 C 116.960938 111.914062 117.0625 111.957031 117.140625 112.03125 C 117.214844 112.109375 117.257812 112.210938 117.257812 112.316406 C 117.261719 113.140625 117.425781 113.953125 117.742188 114.714844 C 117.78125 114.816406 117.78125 114.925781 117.738281 115.023438 C 117.695312 115.121094 117.617188 115.199219 117.515625 115.238281 C 117.46875 115.257812 117.417969 115.265625 117.367188 115.269531 Z M 117.367188 115.269531 " fill-opacity="1" fill-rule="nonzero"/><path fill="#b99876" d="M 120.1875 118.320312 C 120.058594 118.320312 119.722656 118.320312 118.449219 117.101562 C 118.375 117.027344 118.328125 116.925781 118.324219 116.820312 C 118.324219 116.710938 118.363281 116.609375 118.4375 116.53125 C 118.511719 116.457031 118.613281 116.410156 118.722656 116.40625 C 118.828125 116.40625 118.929688 116.445312 119.007812 116.519531 C 119.453125 116.945312 120.042969 117.441406 120.230469 117.515625 C 120.339844 117.523438 120.4375 117.570312 120.511719 117.648438 C 120.582031 117.730469 120.617188 117.835938 120.613281 117.941406 C 120.605469 118.050781 120.558594 118.148438 120.480469 118.21875 C 120.398438 118.292969 120.292969 118.328125 120.1875 118.320312 Z M 120.1875 118.320312 " fill-opacity="1" fill-rule="nonzero"/><path fill="#b99876" d="M 124.304688 119.71875 C 123.515625 119.71875 122.371094 119.453125 122.117188 119.257812 C 122.035156 119.195312 121.976562 119.097656 121.960938 118.992188 C 121.949219 118.886719 121.976562 118.78125 122.039062 118.695312 C 122.105469 118.609375 122.199219 118.554688 122.304688 118.539062 C 122.414062 118.523438 122.519531 118.550781 122.605469 118.613281 C 122.863281 118.765625 124.242188 118.984375 124.558594 118.902344 C 124.605469 118.875 124.65625 118.859375 124.707031 118.851562 C 124.757812 118.84375 124.8125 118.847656 124.863281 118.863281 C 124.914062 118.875 124.960938 118.902344 125.003906 118.933594 C 125.046875 118.964844 125.082031 119.003906 125.109375 119.050781 C 125.136719 119.097656 125.152344 119.148438 125.160156 119.199219 C 125.164062 119.25 125.160156 119.304688 125.148438 119.355469 C 125.136719 119.40625 125.113281 119.457031 125.078125 119.496094 C 125.046875 119.539062 125.007812 119.574219 124.960938 119.601562 C 124.824219 119.683594 124.589844 119.71875 124.304688 119.71875 Z M 124.304688 119.71875 " fill-opacity="1" fill-rule="nonzero"/><path fill="#b99876" d="M 127.328125 119.089844 C 127.222656 119.089844 127.121094 119.042969 127.042969 118.96875 C 126.96875 118.894531 126.925781 118.792969 126.925781 118.6875 C 126.925781 118.578125 126.96875 118.476562 127.042969 118.402344 C 127.121094 118.324219 127.222656 118.28125 127.328125 118.28125 C 127.824219 118.28125 128.8125 117.640625 128.988281 117.277344 C 129.035156 117.179688 129.117188 117.105469 129.21875 117.070312 C 129.320312 117.035156 129.429688 117.042969 129.527344 117.089844 C 129.625 117.132812 129.695312 117.21875 129.734375 117.316406 C 129.769531 117.417969 129.761719 117.53125 129.714844 117.625 C 129.390625 118.292969 128.097656 119.089844 127.328125 119.089844 Z M 127.328125 119.089844 " fill-opacity="1" fill-rule="nonzero"/><path fill="#b99876" d="M 130.738281 116.179688 C 130.664062 116.175781 130.585938 116.15625 130.523438 116.113281 C 130.457031 116.070312 130.40625 116.011719 130.375 115.941406 C 130.34375 115.871094 130.332031 115.792969 130.34375 115.714844 C 130.355469 115.640625 130.386719 115.566406 130.4375 115.511719 C 130.6875 115.222656 130.824219 114.304688 130.714844 113.644531 C 130.695312 113.539062 130.71875 113.429688 130.78125 113.34375 C 130.84375 113.253906 130.9375 113.195312 131.042969 113.179688 C 131.148438 113.160156 131.257812 113.183594 131.34375 113.246094 C 131.429688 113.308594 131.488281 113.402344 131.507812 113.507812 C 131.621094 114.183594 131.554688 115.453125 131.042969 116.039062 C 131.007812 116.082031 130.960938 116.117188 130.90625 116.140625 C 130.855469 116.164062 130.796875 116.179688 130.738281 116.179688 Z M 130.738281 116.179688 " fill-opacity="1" fill-rule="nonzero"/><path fill="#b99876" d="M 130.925781 111.683594 C 130.832031 111.683594 130.742188 111.652344 130.671875 111.59375 C 130.597656 111.53125 130.550781 111.449219 130.53125 111.355469 L 130.199219 109.601562 C 130.179688 109.5 130.203125 109.390625 130.261719 109.304688 C 130.320312 109.214844 130.410156 109.152344 130.511719 109.132812 C 130.613281 109.109375 130.722656 109.128906 130.8125 109.183594 C 130.898438 109.242188 130.964844 109.332031 130.988281 109.433594 L 131.289062 110.683594 C 131.308594 110.765625 131.304688 110.851562 131.269531 110.929688 L 131.324219 111.207031 C 131.34375 111.3125 131.320312 111.421875 131.257812 111.507812 C 131.199219 111.597656 131.105469 111.660156 131 111.679688 C 130.976562 111.683594 130.953125 111.6875 130.925781 111.683594 Z M 130.925781 111.683594 " fill-opacity="1" fill-rule="nonzero"/><path fill="#000000" d="M 124.269531 113.75 C 123.84375 113.980469 123.230469 114.886719 123.867188 115.664062 C 124.167969 116.035156 124.753906 116.109375 125.191406 115.910156 C 125.996094 115.542969 126.164062 114.210938 125.402344 113.746094 Z M 124.269531 113.75 " fill-opacity="1" fill-rule="nonzero"/><path fill="#000000" d="M 124.683594 116.425781 C 124.472656 116.429688 124.261719 116.386719 124.066406 116.300781 C 123.871094 116.214844 123.699219 116.085938 123.558594 115.921875 C 123.40625 115.746094 123.296875 115.535156 123.238281 115.308594 C 123.179688 115.082031 123.175781 114.84375 123.222656 114.613281 C 123.273438 114.363281 123.375 114.125 123.523438 113.917969 C 123.671875 113.707031 123.859375 113.53125 124.078125 113.398438 C 124.136719 113.367188 124.203125 113.347656 124.269531 113.347656 L 125.40625 113.347656 C 125.480469 113.347656 125.554688 113.371094 125.617188 113.410156 C 126.078125 113.691406 126.332031 114.214844 126.296875 114.824219 C 126.257812 115.46875 125.894531 116.042969 125.363281 116.28125 C 125.148438 116.378906 124.917969 116.425781 124.683594 116.425781 Z M 124.382812 114.152344 C 124.195312 114.3125 124.0625 114.527344 124.007812 114.769531 C 123.984375 114.882812 123.988281 115 124.015625 115.109375 C 124.046875 115.21875 124.101562 115.324219 124.179688 115.410156 C 124.351562 115.625 124.722656 115.683594 125.023438 115.546875 C 125.285156 115.425781 125.46875 115.125 125.488281 114.773438 C 125.503906 114.660156 125.492188 114.546875 125.453125 114.4375 C 125.414062 114.332031 125.355469 114.234375 125.273438 114.152344 Z M 124.382812 114.152344 " fill-opacity="1" fill-rule="nonzero"/><path fill="#000000" d="M 121.714844 23.699219 C 121.636719 23.699219 121.558594 23.675781 121.492188 23.632812 L 117.933594 21.316406 C 117.886719 21.289062 117.847656 21.253906 117.816406 21.207031 C 117.785156 21.164062 117.761719 21.113281 117.75 21.0625 C 117.738281 21.007812 117.734375 20.953125 117.746094 20.902344 C 117.753906 20.847656 117.773438 20.796875 117.804688 20.75 C 117.832031 20.707031 117.871094 20.667969 117.917969 20.636719 C 117.960938 20.605469 118.011719 20.585938 118.066406 20.574219 C 118.117188 20.566406 118.171875 20.566406 118.226562 20.578125 C 118.28125 20.589844 118.328125 20.609375 118.375 20.640625 L 121.933594 22.957031 C 122.007812 23.003906 122.0625 23.074219 122.089844 23.15625 C 122.121094 23.238281 122.125 23.328125 122.101562 23.410156 C 122.074219 23.492188 122.023438 23.566406 121.953125 23.617188 C 121.886719 23.671875 121.800781 23.699219 121.714844 23.699219 Z M 121.714844 23.699219 " fill-opacity="1" fill-rule="nonzero"/><g clip-path="url(#d60ff93b92)"><path fill="#000000" d="M 124.792969 21.644531 C 124.722656 21.644531 124.652344 21.625 124.589844 21.589844 C 124.53125 21.554688 124.476562 21.503906 124.441406 21.441406 L 123.421875 19.65625 C 123.394531 19.609375 123.378906 19.558594 123.371094 19.507812 C 123.363281 19.453125 123.371094 19.402344 123.382812 19.351562 C 123.394531 19.300781 123.421875 19.25 123.453125 19.210938 C 123.484375 19.167969 123.523438 19.132812 123.570312 19.105469 C 123.617188 19.078125 123.667969 19.0625 123.71875 19.054688 C 123.773438 19.046875 123.824219 19.050781 123.875 19.066406 C 123.925781 19.078125 123.976562 19.101562 124.015625 19.136719 C 124.058594 19.167969 124.09375 19.207031 124.121094 19.253906 L 125.140625 21.039062 C 125.167969 21.085938 125.183594 21.136719 125.191406 21.1875 C 125.199219 21.242188 125.195312 21.292969 125.179688 21.34375 C 125.167969 21.394531 125.140625 21.445312 125.109375 21.484375 C 125.078125 21.527344 125.039062 21.5625 124.992188 21.589844 C 124.929688 21.625 124.863281 21.644531 124.792969 21.644531 Z M 124.792969 21.644531 " fill-opacity="1" fill-rule="nonzero"/></g><path fill="#000000" d="M 138.804688 31.855469 C 138.730469 31.855469 138.660156 31.835938 138.59375 31.796875 C 138.53125 31.757812 138.480469 31.703125 138.445312 31.640625 C 138.414062 31.574219 138.398438 31.5 138.402344 31.425781 C 138.410156 31.351562 138.433594 31.28125 138.476562 31.222656 C 140.53125 28.316406 142.230469 25.179688 143.535156 21.871094 C 143.578125 21.773438 143.652344 21.695312 143.75 21.652344 C 143.847656 21.609375 143.960938 21.609375 144.058594 21.648438 C 144.15625 21.6875 144.234375 21.761719 144.28125 21.859375 C 144.324219 21.957031 144.324219 22.066406 144.285156 22.167969 C 142.953125 25.535156 141.226562 28.730469 139.132812 31.6875 C 139.097656 31.738281 139.046875 31.78125 138.988281 31.8125 C 138.929688 31.839844 138.867188 31.855469 138.804688 31.855469 Z M 138.804688 31.855469 " fill-opacity="1" fill-rule="nonzero"/><path fill="#000000" d="M 87.222656 40.316406 C 86.375 40.316406 85.453125 40 85.171875 39.257812 C 84.910156 38.570312 85.292969 37.824219 86.25 37.15625 C 87.347656 36.398438 88.574219 35.855469 89.871094 35.542969 C 89.925781 35.53125 89.980469 35.527344 90.035156 35.53125 C 90.085938 35.539062 90.136719 35.558594 90.183594 35.585938 C 90.230469 35.613281 90.273438 35.648438 90.304688 35.691406 C 90.335938 35.734375 90.359375 35.785156 90.375 35.835938 C 90.386719 35.890625 90.386719 35.945312 90.378906 35.996094 C 90.371094 36.050781 90.351562 36.101562 90.320312 36.148438 C 90.292969 36.195312 90.253906 36.234375 90.210938 36.265625 C 90.164062 36.292969 90.113281 36.316406 90.0625 36.328125 C 88.863281 36.613281 87.726562 37.117188 86.710938 37.816406 C 86.480469 37.972656 85.753906 38.527344 85.921875 38.972656 C 86.050781 39.3125 86.6875 39.546875 87.367188 39.507812 C 87.707031 39.480469 88.042969 39.433594 88.375 39.363281 C 88.777344 39.277344 89.1875 39.226562 89.597656 39.203125 C 89.707031 39.199219 89.808594 39.238281 89.886719 39.3125 C 89.964844 39.386719 90.011719 39.488281 90.011719 39.59375 C 90.015625 39.699219 89.976562 39.804688 89.902344 39.882812 C 89.828125 39.960938 89.730469 40.003906 89.621094 40.007812 C 89.253906 40.027344 88.882812 40.078125 88.523438 40.15625 C 88.15625 40.230469 87.785156 40.285156 87.414062 40.3125 C 87.351562 40.3125 87.289062 40.316406 87.222656 40.316406 Z M 87.222656 40.316406 " fill-opacity="1" fill-rule="nonzero"/><path fill="#000000" d="M 102.4375 41.164062 C 101.945312 41.175781 101.460938 41.011719 101.074219 40.699219 C 100.898438 40.550781 100.757812 40.367188 100.65625 40.15625 C 100.558594 39.949219 100.503906 39.722656 100.496094 39.492188 C 100.488281 39.265625 100.53125 39.039062 100.617188 38.832031 C 100.699219 38.621094 100.828125 38.433594 100.992188 38.273438 C 101.027344 38.238281 101.074219 38.207031 101.125 38.191406 C 101.171875 38.171875 101.226562 38.160156 101.277344 38.160156 C 101.332031 38.164062 101.382812 38.175781 101.429688 38.195312 C 101.480469 38.214844 101.523438 38.246094 101.558594 38.285156 C 101.597656 38.324219 101.625 38.367188 101.644531 38.417969 C 101.664062 38.46875 101.671875 38.519531 101.671875 38.574219 C 101.671875 38.625 101.660156 38.675781 101.640625 38.726562 C 101.617188 38.773438 101.585938 38.820312 101.550781 38.855469 C 101.464844 38.933594 101.402344 39.03125 101.359375 39.136719 C 101.3125 39.242188 101.296875 39.355469 101.300781 39.472656 C 101.304688 39.589844 101.332031 39.703125 101.382812 39.808594 C 101.433594 39.917969 101.507812 40.011719 101.597656 40.085938 C 102.011719 40.441406 102.789062 40.457031 103.226562 40.121094 C 103.3125 40.0625 103.417969 40.035156 103.519531 40.050781 C 103.625 40.066406 103.71875 40.121094 103.78125 40.203125 C 103.84375 40.285156 103.875 40.390625 103.863281 40.496094 C 103.851562 40.597656 103.796875 40.691406 103.71875 40.757812 C 103.347656 41.03125 102.898438 41.171875 102.4375 41.164062 Z M 102.4375 41.164062 " fill-opacity="1" fill-rule="nonzero"/><path fill="#000000" d="M 112.71875 33.328125 C 111.980469 33.328125 111.230469 33.027344 110.769531 32.542969 C 110.605469 32.378906 110.476562 32.175781 110.402344 31.957031 C 110.324219 31.738281 110.296875 31.5 110.320312 31.269531 C 110.402344 30.542969 111.042969 29.902344 111.875 29.707031 C 112.582031 29.546875 113.300781 29.683594 113.878906 29.796875 C 113.933594 29.804688 113.988281 29.824219 114.03125 29.851562 C 114.078125 29.878906 114.117188 29.917969 114.148438 29.960938 C 114.179688 30.007812 114.203125 30.054688 114.214844 30.109375 C 114.226562 30.164062 114.226562 30.21875 114.214844 30.269531 C 114.207031 30.324219 114.183594 30.375 114.152344 30.417969 C 114.125 30.464844 114.085938 30.503906 114.039062 30.53125 C 113.996094 30.5625 113.941406 30.582031 113.890625 30.589844 C 113.835938 30.601562 113.78125 30.597656 113.730469 30.585938 C 113.199219 30.484375 112.59375 30.367188 112.058594 30.492188 C 111.628906 30.59375 111.171875 30.921875 111.121094 31.359375 C 111.109375 31.476562 111.125 31.59375 111.167969 31.703125 C 111.207031 31.8125 111.273438 31.910156 111.355469 31.992188 C 111.679688 32.332031 112.285156 32.550781 112.824219 32.523438 C 113.230469 32.484375 113.636719 32.417969 114.03125 32.3125 C 114.628906 32.179688 115.242188 32.039062 115.890625 32.097656 C 115.941406 32.101562 115.992188 32.117188 116.042969 32.144531 C 116.085938 32.167969 116.128906 32.199219 116.164062 32.242188 C 116.199219 32.28125 116.222656 32.328125 116.238281 32.378906 C 116.253906 32.429688 116.261719 32.484375 116.257812 32.539062 C 116.25 32.589844 116.234375 32.640625 116.210938 32.6875 C 116.1875 32.734375 116.152344 32.777344 116.113281 32.8125 C 116.070312 32.84375 116.023438 32.871094 115.972656 32.886719 C 115.921875 32.902344 115.871094 32.90625 115.816406 32.902344 C 115.296875 32.855469 114.769531 32.976562 114.210938 33.105469 C 113.773438 33.21875 113.324219 33.292969 112.871094 33.328125 C 112.820312 33.328125 112.765625 33.328125 112.71875 33.328125 Z M 112.71875 33.328125 " fill-opacity="1" fill-rule="nonzero"/><path fill="#b99876" d="M 120.800781 132.925781 C 120.703125 132.925781 120.609375 132.890625 120.535156 132.828125 C 120.460938 132.765625 120.414062 132.679688 120.402344 132.582031 C 120.386719 132.488281 120.40625 132.390625 120.457031 132.308594 C 120.507812 132.226562 120.589844 132.167969 120.683594 132.136719 C 125.945312 130.535156 127.246094 130.292969 135.851562 128.867188 C 135.957031 128.851562 136.066406 128.875 136.152344 128.9375 C 136.242188 129 136.296875 129.09375 136.316406 129.199219 C 136.335938 129.304688 136.308594 129.414062 136.246094 129.5 C 136.183594 129.585938 136.089844 129.644531 135.984375 129.664062 C 127.421875 131.070312 126.128906 131.320312 120.917969 132.910156 C 120.878906 132.921875 120.839844 132.925781 120.800781 132.925781 Z M 120.800781 132.925781 " fill-opacity="1" fill-rule="nonzero"/><path fill="#000000" d="M 62.902344 141.671875 C 62.796875 141.671875 62.691406 141.628906 62.617188 141.554688 C 62.542969 141.476562 62.5 141.375 62.5 141.269531 C 62.5 141.160156 62.542969 141.058594 62.617188 140.984375 C 62.691406 140.910156 62.796875 140.867188 62.902344 140.867188 C 68.300781 140.785156 71.292969 140.753906 74.1875 140.722656 C 77.085938 140.691406 80.078125 140.660156 85.476562 140.582031 L 85.480469 140.582031 C 85.585938 140.582031 85.691406 140.625 85.765625 140.699219 C 85.84375 140.773438 85.886719 140.875 85.886719 140.980469 C 85.886719 141.089844 85.84375 141.191406 85.769531 141.265625 C 85.695312 141.34375 85.59375 141.386719 85.488281 141.386719 C 80.085938 141.46875 77.09375 141.5 74.199219 141.53125 C 71.304688 141.558594 68.3125 141.589844 62.914062 141.671875 Z M 62.902344 141.671875 " fill-opacity="1" fill-rule="nonzero"/><path fill="#000000" d="M 91.078125 141.363281 C 90.90625 141.363281 90.726562 141.355469 90.535156 141.347656 C 90.113281 141.324219 89.6875 141.328125 89.265625 141.359375 C 89.214844 141.363281 89.160156 141.359375 89.109375 141.34375 C 89.058594 141.328125 89.011719 141.300781 88.972656 141.269531 C 88.929688 141.234375 88.894531 141.191406 88.871094 141.148438 C 88.847656 141.101562 88.832031 141.046875 88.824219 140.996094 C 88.820312 140.941406 88.824219 140.890625 88.839844 140.835938 C 88.855469 140.789062 88.882812 140.742188 88.914062 140.699219 C 88.949219 140.65625 88.992188 140.625 89.039062 140.597656 C 89.085938 140.574219 89.136719 140.558594 89.1875 140.554688 C 89.648438 140.515625 90.109375 140.511719 90.566406 140.542969 C 90.8125 140.550781 91.046875 140.558594 91.230469 140.550781 C 91.339844 140.546875 91.441406 140.585938 91.523438 140.65625 C 91.601562 140.730469 91.648438 140.832031 91.652344 140.9375 C 91.65625 141.042969 91.617188 141.148438 91.542969 141.226562 C 91.472656 141.304688 91.371094 141.351562 91.265625 141.355469 C 91.203125 141.363281 91.140625 141.363281 91.078125 141.363281 Z M 91.078125 141.363281 " fill-opacity="1" fill-rule="nonzero"/><path fill="#000000" d="M 94.003906 141.382812 C 93.589844 141.382812 93.199219 141.382812 92.851562 141.363281 C 92.742188 141.359375 92.644531 141.3125 92.570312 141.234375 C 92.496094 141.15625 92.460938 141.054688 92.460938 140.945312 C 92.464844 140.839844 92.511719 140.738281 92.589844 140.667969 C 92.667969 140.59375 92.773438 140.554688 92.878906 140.558594 C 94.554688 140.617188 97.164062 140.511719 99.460938 140.421875 C 100.523438 140.378906 101.523438 140.339844 102.316406 140.320312 C 102.425781 140.316406 102.527344 140.359375 102.605469 140.433594 C 102.683594 140.503906 102.726562 140.605469 102.730469 140.714844 C 102.734375 140.820312 102.695312 140.925781 102.621094 141 C 102.546875 141.078125 102.445312 141.125 102.335938 141.125 C 101.550781 141.144531 100.550781 141.183594 99.492188 141.226562 C 97.652344 141.300781 95.617188 141.382812 94.003906 141.382812 Z M 94.003906 141.382812 " fill-opacity="1" fill-rule="nonzero"/><path fill="#3b2a1a" d="M 34.148438 132.488281 C 34.320312 134.332031 36.148438 139.066406 38.476562 139.675781 C 40.808594 140.285156 41.230469 139.285156 39.28125 138.152344 C 38.679688 137.800781 36.433594 136.464844 35.898438 135.320312 C 35.359375 134.179688 33.835938 129.09375 34.148438 132.488281 Z M 34.148438 132.488281 " fill-opacity="1" fill-rule="nonzero"/><path fill="#000000" d="M 107.410156 141.308594 C 107.304688 141.308594 107.203125 141.269531 107.125 141.195312 C 107.046875 141.121094 107.003906 141.019531 107.003906 140.914062 C 107 140.804688 107.042969 140.703125 107.117188 140.625 C 107.191406 140.546875 107.292969 140.503906 107.398438 140.503906 C 122.863281 140 135.28125 139.761719 147.652344 139.738281 C 147.757812 139.738281 147.863281 139.78125 147.9375 139.855469 C 148.011719 139.929688 148.054688 140.035156 148.054688 140.140625 C 148.054688 140.246094 148.011719 140.347656 147.9375 140.425781 C 147.863281 140.5 147.757812 140.542969 147.652344 140.542969 C 135.285156 140.566406 122.878906 140.804688 107.421875 141.308594 Z M 107.410156 141.308594 " fill-opacity="1" fill-rule="nonzero"/><g clip-path="url(#4f106f81e2)"><path fill="#000000" d="M 150.210938 140.675781 C 150.121094 140.675781 150.035156 140.644531 149.964844 140.589844 C 149.894531 140.535156 149.84375 140.457031 149.820312 140.367188 C 149.800781 140.28125 149.808594 140.191406 149.84375 140.109375 C 149.878906 140.027344 149.945312 139.957031 150.023438 139.917969 C 150.363281 139.734375 150.761719 139.691406 151.136719 139.789062 C 151.234375 139.820312 151.320312 139.886719 151.371094 139.980469 C 151.417969 140.070312 151.433594 140.179688 151.40625 140.277344 C 151.378906 140.378906 151.3125 140.464844 151.222656 140.519531 C 151.132812 140.574219 151.027344 140.589844 150.925781 140.566406 C 150.75 140.523438 150.5625 140.542969 150.398438 140.628906 C 150.34375 140.65625 150.277344 140.675781 150.210938 140.675781 Z M 150.210938 140.675781 " fill-opacity="1" fill-rule="nonzero"/></g><g clip-path="url(#5dbe6fd413)"><path fill="#b99876" d="M 128.285156 150.519531 C 128.488281 151.195312 128.6875 151.890625 128.625 152.59375 C 128.523438 153.757812 127.71875 154.722656 126.945312 155.601562 C 125.765625 156.957031 124.671875 158.730469 123.492188 160.085938 C 123.058594 160.582031 122.757812 161.039062 121.808594 160.203125 C 120.160156 158.746094 118.496094 156.789062 117.023438 155.15625 C 116.628906 154.726562 116.238281 154.273438 116.027344 153.734375 C 115.714844 152.9375 116.242188 151.710938 116.347656 150.863281 C 116.789062 147.316406 116.917969 144.164062 116.695312 140.59375 C 116.507812 137.625 116 136.667969 115.578125 136.320312 C 116.40625 136.269531 120.902344 135.84375 121.371094 135.832031 C 122.34375 135.808594 123.257812 135.285156 123.824219 136.308594 C 124.4375 137.414062 125.03125 139.542969 125.390625 140.753906 L 126.738281 145.300781 Z M 128.285156 150.519531 " fill-opacity="1" fill-rule="nonzero"/></g><path fill="#000000" d="M 116.222656 148.660156 C 116.132812 148.660156 116.042969 148.628906 115.972656 148.574219 C 115.902344 148.515625 115.851562 148.4375 115.832031 148.351562 C 115.8125 148.261719 115.820312 148.167969 115.859375 148.085938 C 115.898438 148.003906 115.964844 147.9375 116.042969 147.898438 C 119.441406 146.210938 122.996094 144.863281 126.65625 143.878906 C 126.710938 143.863281 126.765625 143.855469 126.816406 143.863281 C 126.871094 143.867188 126.921875 143.882812 126.972656 143.910156 C 127.019531 143.9375 127.058594 143.972656 127.09375 144.015625 C 127.128906 144.058594 127.152344 144.105469 127.164062 144.160156 C 127.179688 144.210938 127.183594 144.265625 127.175781 144.320312 C 127.167969 144.371094 127.148438 144.421875 127.121094 144.46875 C 127.09375 144.515625 127.058594 144.554688 127.011719 144.589844 C 126.96875 144.621094 126.921875 144.644531 126.867188 144.65625 C 123.257812 145.628906 119.75 146.953125 116.402344 148.617188 C 116.347656 148.644531 116.285156 148.660156 116.222656 148.660156 Z M 116.222656 148.660156 " fill-opacity="1" fill-rule="nonzero"/><path fill="#000000" d="M 115.902344 152.019531 C 115.816406 152.019531 115.738281 151.992188 115.667969 151.945312 C 115.601562 151.898438 115.550781 151.828125 115.523438 151.75 C 115.496094 151.671875 115.492188 151.585938 115.515625 151.507812 C 115.539062 151.425781 115.585938 151.355469 115.648438 151.304688 C 117.425781 149.875 119.519531 149.089844 121.875 148.285156 C 123.789062 147.625 125.730469 146.984375 127.652344 146.378906 C 127.703125 146.359375 127.757812 146.355469 127.8125 146.359375 C 127.863281 146.363281 127.914062 146.378906 127.960938 146.402344 C 128.007812 146.425781 128.050781 146.460938 128.082031 146.5 C 128.117188 146.542969 128.144531 146.589844 128.160156 146.640625 C 128.175781 146.691406 128.183594 146.742188 128.175781 146.796875 C 128.171875 146.847656 128.15625 146.898438 128.132812 146.945312 C 128.109375 146.992188 128.074219 147.035156 128.035156 147.066406 C 127.996094 147.101562 127.949219 147.128906 127.898438 147.144531 C 125.976562 147.75 124.039062 148.390625 122.136719 149.042969 C 119.855469 149.832031 117.832031 150.589844 116.152344 151.9375 C 116.082031 151.992188 115.992188 152.019531 115.902344 152.019531 Z M 115.902344 152.019531 " fill-opacity="1" fill-rule="nonzero"/></svg>