<svg xmlns="http://www.w3.org/2000/svg" xmlns:xlink="http://www.w3.org/1999/xlink" width="240" zoomAndPan="magnify" viewBox="0 0 180 179.999997" height="240" preserveAspectRatio="xMidYMid meet" version="1.0"><defs><clipPath id="f828f2c575"><path d="M 75 57 L 162.792969 57 L 162.792969 139 L 75 139 Z M 75 57 " clip-rule="nonzero"/></clipPath><clipPath id="92504dff0a"><path d="M 17.292969 18 L 75 18 L 75 102 L 17.292969 102 Z M 17.292969 18 " clip-rule="nonzero"/></clipPath><clipPath id="d3350c1746"><path d="M 154 56 L 162.792969 56 L 162.792969 73 L 154 73 Z M 154 56 " clip-rule="nonzero"/></clipPath></defs><path fill="#52381e" d="M 68.042969 139.886719 C 68.996094 146.199219 70.164062 152.523438 72.40625 158.503906 C 72.828125 159.628906 73.363281 160.828125 74.433594 161.367188 C 75.828125 162.078125 77.492188 161.367188 78.90625 160.695312 C 97.296875 151.96875 117.644531 148.1875 137.941406 149.722656 C 143.511719 150.148438 149.050781 150.980469 154.632812 151.253906 C 155.738281 151.308594 156.964844 151.304688 157.800781 150.574219 C 158.683594 149.796875 158.816406 148.488281 158.875 147.3125 C 160.226562 120.519531 157.667969 93.671875 151.28125 67.617188 C 150.332031 63.75 149.285156 59.867188 147.417969 56.347656 C 146.921875 55.40625 146.324219 54.457031 145.402344 53.921875 C 144.230469 53.25 142.78125 53.386719 141.441406 53.550781 C 114.585938 56.839844 88.171875 64.015625 61.128906 64.898438 C 58.722656 64.976562 55.722656 65.027344 54.054688 67.054688 C 52.882812 68.480469 53.867188 69.964844 54.710938 71.273438 C 57.558594 75.710938 58.753906 81.1875 60.003906 86.257812 C 61.382812 91.855469 62.425781 97.53125 63.292969 103.234375 C 64.164062 108.96875 64.863281 114.730469 65.554688 120.492188 C 66.25 126.253906 66.914062 132.015625 67.742188 137.757812 C 67.835938 138.464844 67.933594 139.175781 68.042969 139.886719 Z M 68.042969 139.886719 " fill-opacity="1" fill-rule="nonzero"/><g clip-path="url(#f828f2c575)"><path fill="#b99876" d="M 109.578125 107.839844 C 110.234375 108.433594 110.96875 109.050781 111.851562 109.113281 C 112.675781 109.171875 113.449219 108.730469 114.125 108.253906 C 117.609375 105.816406 120.066406 102.214844 122.519531 98.746094 C 132.238281 85.046875 143.21875 72.285156 155.316406 60.636719 C 156.699219 59.304688 158.246094 57.929688 159.984375 57.25 C 160.28125 57.132812 160.601562 57.097656 160.917969 57.140625 C 161.230469 57.183594 161.527344 57.304688 161.78125 57.496094 C 162.035156 57.6875 162.238281 57.941406 162.363281 58.230469 C 162.492188 58.523438 162.542969 58.839844 162.515625 59.15625 C 162.273438 61.585938 160.785156 63.960938 159.371094 66.0625 C 149.808594 80.273438 141.035156 95 133.101562 110.183594 C 128.65625 118.691406 123.121094 128.03125 118.621094 135.027344 C 117.703125 136.449219 116.394531 137.765625 114.742188 138.140625 C 111.820312 138.808594 109.328125 136.078125 107.570312 133.652344 L 94.589844 115.742188 L 81.460938 97.621094 L 78.191406 93.105469 C 77.222656 91.769531 75.929688 90.386719 75.371094 88.808594 C 74.453125 86.21875 76.410156 84.527344 78.917969 84.835938 C 81.65625 85.167969 84.519531 87 86.839844 88.402344 C 89.441406 90.003906 91.925781 91.796875 94.265625 93.761719 C 99.03125 97.699219 103.375 102.105469 107.910156 106.3125 C 108.460938 106.824219 109.019531 107.332031 109.578125 107.839844 Z M 109.578125 107.839844 " fill-opacity="1" fill-rule="nonzero"/></g><g clip-path="url(#92504dff0a)"><path fill="#f5d7b5" d="M 34.183594 101.453125 C 45.75 92.140625 59.359375 85.695312 73.894531 82.652344 C 73.992188 82.628906 74.085938 82.585938 74.164062 82.523438 C 74.246094 82.460938 74.308594 82.382812 74.351562 82.289062 C 74.390625 82.199219 74.414062 82.097656 74.410156 81.996094 C 74.40625 81.894531 74.378906 81.796875 74.332031 81.707031 C 63.863281 62.585938 68.484375 38.210938 57.109375 19.480469 C 56.847656 19.042969 56.019531 17.53125 52.949219 18.550781 C 42.914062 21.878906 33.308594 27.925781 22.75 27.375 C 22.683594 27.375 20.085938 35.074219 19.777344 35.792969 C 19.167969 37.195312 18.375 38.527344 17.785156 39.929688 C 17.355469 40.964844 18.339844 42.085938 18.792969 43.058594 C 20.890625 47.546875 22.125 52.382812 22.957031 57.253906 C 23.808594 62.222656 24.253906 67.246094 24.769531 72.257812 C 25.28125 77.234375 25.851562 82.226562 26.984375 87.109375 C 28.085938 91.855469 29.75 96.492188 32.351562 100.628906 C 32.480469 100.832031 32.609375 101.03125 32.738281 101.230469 C 32.816406 101.34375 32.914062 101.441406 33.03125 101.515625 C 33.148438 101.589844 33.277344 101.636719 33.410156 101.660156 C 33.546875 101.679688 33.6875 101.671875 33.820312 101.636719 C 33.953125 101.601562 34.074219 101.539062 34.183594 101.453125 Z M 34.183594 101.453125 " fill-opacity="1" fill-rule="nonzero"/></g><path fill="#52381e" d="M 33.601562 39.03125 C 33.476562 39.03125 33.351562 38.988281 33.25 38.910156 C 33.148438 38.832031 33.078125 38.71875 33.050781 38.59375 C 33.019531 38.472656 33.03125 38.339844 33.085938 38.222656 C 33.140625 38.109375 33.234375 38.015625 33.347656 37.957031 C 37.882812 35.667969 42.707031 33.988281 47.683594 32.964844 C 47.828125 32.941406 47.976562 32.976562 48.097656 33.058594 C 48.21875 33.140625 48.300781 33.265625 48.332031 33.410156 C 48.359375 33.554688 48.332031 33.703125 48.253906 33.824219 C 48.175781 33.949219 48.054688 34.039062 47.914062 34.074219 C 43.03125 35.078125 38.304688 36.722656 33.855469 38.96875 C 33.777344 39.007812 33.691406 39.03125 33.601562 39.03125 Z M 33.601562 39.03125 " fill-opacity="1" fill-rule="nonzero"/><path fill="#52381e" d="M 34.953125 46.566406 C 34.824219 46.566406 34.699219 46.523438 34.601562 46.441406 C 34.5 46.363281 34.429688 46.25 34.398438 46.125 C 34.371094 46 34.386719 45.871094 34.441406 45.753906 C 34.496094 45.640625 34.589844 45.546875 34.703125 45.488281 C 43.300781 41.269531 48.445312 40.320312 52.34375 39.949219 C 52.417969 39.941406 52.492188 39.949219 52.5625 39.972656 C 52.632812 39.992188 52.699219 40.027344 52.757812 40.078125 C 52.816406 40.125 52.863281 40.183594 52.898438 40.25 C 52.933594 40.3125 52.953125 40.386719 52.960938 40.460938 C 52.96875 40.535156 52.960938 40.609375 52.941406 40.679688 C 52.917969 40.753906 52.882812 40.820312 52.835938 40.875 C 52.785156 40.933594 52.726562 40.980469 52.664062 41.015625 C 52.597656 41.050781 52.523438 41.074219 52.449219 41.082031 C 48.652344 41.441406 43.636719 42.371094 35.203125 46.511719 C 35.125 46.546875 35.039062 46.566406 34.953125 46.566406 Z M 34.953125 46.566406 " fill-opacity="1" fill-rule="nonzero"/><path fill="#52381e" d="M 33.601562 58.066406 C 33.476562 58.066406 33.355469 58.023438 33.257812 57.949219 C 33.160156 57.871094 33.085938 57.765625 33.054688 57.644531 C 33.023438 57.523438 33.03125 57.398438 33.078125 57.28125 C 33.128906 57.167969 33.210938 57.070312 33.320312 57.007812 C 42.019531 52.03125 47.8125 50.183594 58.316406 47.683594 C 58.457031 47.664062 58.597656 47.695312 58.714844 47.773438 C 58.832031 47.855469 58.914062 47.976562 58.945312 48.113281 C 58.976562 48.25 58.957031 48.394531 58.890625 48.515625 C 58.820312 48.640625 58.710938 48.734375 58.578125 48.777344 C 48.183594 51.25 42.449219 53.078125 33.878906 57.984375 C 33.796875 58.035156 33.699219 58.0625 33.601562 58.066406 Z M 33.601562 58.066406 " fill-opacity="1" fill-rule="nonzero"/><path fill="#52381e" d="M 39.878906 64.316406 C 39.75 64.316406 39.625 64.269531 39.523438 64.1875 C 39.421875 64.105469 39.351562 63.992188 39.324219 63.863281 C 39.300781 63.734375 39.320312 63.601562 39.378906 63.488281 C 39.441406 63.371094 39.539062 63.28125 39.660156 63.230469 L 55.113281 56.632812 C 55.183594 56.605469 55.257812 56.589844 55.332031 56.589844 C 55.40625 56.585938 55.480469 56.601562 55.546875 56.628906 C 55.617188 56.65625 55.679688 56.699219 55.734375 56.75 C 55.785156 56.800781 55.828125 56.863281 55.859375 56.933594 C 55.886719 57 55.902344 57.074219 55.902344 57.148438 C 55.902344 57.222656 55.890625 57.296875 55.863281 57.363281 C 55.835938 57.433594 55.792969 57.496094 55.742188 57.550781 C 55.691406 57.601562 55.628906 57.644531 55.558594 57.675781 L 40.101562 64.269531 C 40.03125 64.300781 39.957031 64.316406 39.878906 64.316406 Z M 39.878906 64.316406 " fill-opacity="1" fill-rule="nonzero"/><path fill="#52381e" d="M 37.78125 76.644531 C 37.660156 76.644531 37.539062 76.605469 37.441406 76.53125 C 37.34375 76.457031 37.273438 76.351562 37.238281 76.234375 C 37.203125 76.113281 37.210938 75.988281 37.253906 75.871094 C 37.300781 75.757812 37.382812 75.660156 37.488281 75.597656 C 46.136719 70.308594 55.199219 66.425781 60.042969 65.9375 C 60.117188 65.929688 60.195312 65.9375 60.265625 65.960938 C 60.335938 65.980469 60.402344 66.015625 60.460938 66.0625 C 60.519531 66.109375 60.566406 66.167969 60.601562 66.234375 C 60.636719 66.300781 60.660156 66.375 60.667969 66.449219 C 60.675781 66.523438 60.667969 66.597656 60.644531 66.667969 C 60.625 66.738281 60.589844 66.804688 60.542969 66.863281 C 60.492188 66.921875 60.4375 66.96875 60.371094 67.003906 C 60.304688 67.039062 60.230469 67.0625 60.15625 67.070312 C 55.46875 67.542969 46.59375 71.359375 38.078125 76.566406 C 37.988281 76.621094 37.886719 76.644531 37.78125 76.644531 Z M 37.78125 76.644531 " fill-opacity="1" fill-rule="nonzero"/><path fill="#52381e" d="M 46.382812 81.808594 C 46.257812 81.808594 46.136719 81.769531 46.039062 81.691406 C 45.941406 81.617188 45.871094 81.511719 45.835938 81.390625 C 45.804688 81.269531 45.8125 81.140625 45.863281 81.027344 C 45.910156 80.914062 45.992188 80.816406 46.101562 80.753906 C 49.28125 78.898438 54.28125 76.984375 57.476562 76.390625 C 57.550781 76.375 57.628906 76.375 57.703125 76.386719 C 57.777344 76.402344 57.847656 76.429688 57.914062 76.472656 C 57.976562 76.511719 58.03125 76.566406 58.074219 76.628906 C 58.113281 76.695312 58.144531 76.765625 58.15625 76.839844 C 58.171875 76.914062 58.171875 76.992188 58.152344 77.066406 C 58.136719 77.140625 58.105469 77.210938 58.0625 77.273438 C 58.019531 77.335938 57.960938 77.386719 57.898438 77.425781 C 57.832031 77.464844 57.757812 77.492188 57.683594 77.503906 C 54.644531 78.070312 49.703125 79.964844 46.671875 81.730469 C 46.582031 81.78125 46.484375 81.808594 46.382812 81.808594 Z M 46.382812 81.808594 " fill-opacity="1" fill-rule="nonzero"/><path fill="#52381e" d="M 109.640625 130.777344 C 110.382812 131.980469 111.339844 133.320312 112.746094 133.425781 C 114.152344 133.535156 115.273438 132.371094 116.105469 131.25 C 117.371094 129.554688 118.394531 127.015625 116.917969 125.5 C 116.269531 124.835938 115.308594 124.601562 114.4375 124.273438 C 109.214844 122.335938 106.445312 116.808594 102.738281 112.65625 C 101.746094 111.546875 94.84375 105.839844 100.441406 115.375 C 101.25 116.757812 102.078125 118.089844 102.925781 119.441406 C 104.167969 121.417969 105.195312 123.542969 106.421875 125.53125 Z M 109.640625 130.777344 " fill-opacity="1" fill-rule="nonzero"/><path fill="#ffffff" d="M 71.480469 126.238281 C 71.339844 126.238281 71.207031 126.1875 71.101562 126.097656 C 70.996094 126.003906 70.929688 125.875 70.914062 125.738281 C 69.433594 113.695312 67.527344 101.542969 65.257812 89.617188 C 65.226562 89.472656 65.257812 89.320312 65.34375 89.195312 C 65.429688 89.070312 65.558594 88.984375 65.707031 88.957031 C 65.851562 88.929688 66.003906 88.960938 66.128906 89.046875 C 66.253906 89.128906 66.339844 89.257812 66.367188 89.40625 C 68.644531 101.355469 70.550781 113.53125 72.035156 125.601562 C 72.046875 125.683594 72.039062 125.765625 72.015625 125.839844 C 71.992188 125.917969 71.949219 125.988281 71.898438 126.046875 C 71.84375 126.109375 71.777344 126.15625 71.703125 126.1875 C 71.628906 126.21875 71.550781 126.238281 71.46875 126.238281 Z M 71.480469 126.238281 " fill-opacity="1" fill-rule="nonzero"/><path fill="#ffffff" d="M 72.941406 138.8125 C 72.8125 138.808594 72.6875 138.765625 72.585938 138.683594 C 72.484375 138.601562 72.414062 138.488281 72.390625 138.359375 C 71.890625 135.960938 71.792969 134.675781 71.730469 133.464844 C 71.726562 133.386719 71.738281 133.316406 71.761719 133.242188 C 71.785156 133.171875 71.824219 133.109375 71.875 133.054688 C 71.925781 133 71.984375 132.953125 72.050781 132.921875 C 72.117188 132.890625 72.191406 132.871094 72.265625 132.867188 C 72.339844 132.863281 72.414062 132.871094 72.484375 132.898438 C 72.554688 132.925781 72.621094 132.960938 72.675781 133.011719 C 72.730469 133.0625 72.773438 133.121094 72.808594 133.1875 C 72.839844 133.257812 72.859375 133.328125 72.863281 133.402344 C 72.921875 134.570312 73.015625 135.808594 73.496094 138.128906 C 73.527344 138.273438 73.5 138.429688 73.417969 138.554688 C 73.335938 138.679688 73.207031 138.765625 73.058594 138.800781 C 73.019531 138.808594 72.980469 138.8125 72.941406 138.8125 Z M 72.941406 138.8125 " fill-opacity="1" fill-rule="nonzero"/><path fill="#ffffff" d="M 77.921875 155.96875 C 77.027344 155.96875 76.339844 155.695312 75.90625 155.007812 C 75.402344 154.207031 73.949219 147.410156 74.042969 145.253906 C 74.042969 145.179688 74.0625 145.105469 74.09375 145.042969 C 74.125 144.972656 74.167969 144.914062 74.222656 144.863281 C 74.277344 144.8125 74.34375 144.773438 74.414062 144.746094 C 74.484375 144.722656 74.558594 144.710938 74.632812 144.714844 C 74.707031 144.71875 74.777344 144.734375 74.847656 144.765625 C 74.914062 144.796875 74.972656 144.84375 75.023438 144.894531 C 75.074219 144.949219 75.113281 145.015625 75.140625 145.085938 C 75.164062 145.152344 75.175781 145.230469 75.171875 145.300781 C 75.089844 147.253906 76.503906 153.765625 76.871094 154.40625 C 77.527344 155.449219 80.351562 154.40625 83.347656 153.3125 C 85.71875 152.441406 88.410156 151.453125 91.023438 151.066406 C 91.097656 151.054688 91.175781 151.054688 91.25 151.070312 C 91.324219 151.089844 91.394531 151.121094 91.453125 151.164062 C 91.515625 151.207031 91.570312 151.261719 91.609375 151.328125 C 91.648438 151.394531 91.671875 151.464844 91.683594 151.539062 C 91.695312 151.617188 91.691406 151.691406 91.671875 151.765625 C 91.652344 151.839844 91.621094 151.90625 91.574219 151.96875 C 91.527344 152.027344 91.46875 152.078125 91.402344 152.117188 C 91.339844 152.152344 91.265625 152.175781 91.191406 152.183594 C 88.6875 152.554688 86.058594 153.519531 83.738281 154.375 C 81.414062 155.226562 79.390625 155.96875 77.921875 155.96875 Z M 77.921875 155.96875 " fill-opacity="1" fill-rule="nonzero"/><path fill="#ffffff" d="M 81.183594 67.066406 C 81.035156 67.078125 80.886719 67.027344 80.773438 66.929688 C 80.65625 66.828125 80.589844 66.691406 80.578125 66.539062 C 80.566406 66.390625 80.617188 66.242188 80.714844 66.128906 C 80.8125 66.015625 80.953125 65.945312 81.101562 65.933594 C 86.425781 65.160156 91.839844 64.238281 97.074219 63.335938 C 102.3125 62.429688 107.738281 61.503906 113.074219 60.730469 C 113.222656 60.707031 113.375 60.746094 113.496094 60.835938 C 113.613281 60.925781 113.695312 61.058594 113.714844 61.207031 C 113.738281 61.355469 113.699219 61.507812 113.609375 61.628906 C 113.519531 61.75 113.386719 61.828125 113.238281 61.851562 C 107.914062 62.621094 102.5 63.546875 97.265625 64.449219 C 92.03125 65.351562 86.601562 66.277344 81.265625 67.054688 C 81.238281 67.0625 81.210938 67.066406 81.183594 67.066406 Z M 81.183594 67.066406 " fill-opacity="1" fill-rule="nonzero"/><path fill="#ffffff" d="M 121.742188 60.148438 C 121.601562 60.148438 121.464844 60.097656 121.363281 60.003906 C 121.261719 59.90625 121.195312 59.777344 121.179688 59.640625 C 121.167969 59.5 121.203125 59.359375 121.289062 59.246094 C 121.371094 59.132812 121.492188 59.054688 121.628906 59.027344 C 123.816406 58.585938 127.226562 58.039062 129.648438 57.925781 C 129.800781 57.917969 129.945312 57.972656 130.058594 58.074219 C 130.167969 58.175781 130.234375 58.316406 130.238281 58.46875 C 130.246094 58.617188 130.191406 58.765625 130.089844 58.875 C 129.988281 58.984375 129.847656 59.050781 129.699219 59.058594 C 127.339844 59.160156 124 59.703125 121.855469 60.136719 C 121.820312 60.144531 121.78125 60.148438 121.742188 60.148438 Z M 121.742188 60.148438 " fill-opacity="1" fill-rule="nonzero"/><path fill="#52381e" d="M 111.972656 109.785156 C 110.226562 109.785156 108.699219 108.15625 107.519531 106.898438 C 107.175781 106.515625 106.8125 106.152344 106.433594 105.808594 C 106.066406 105.496094 105.117188 104.640625 103.804688 103.460938 C 99.484375 99.566406 90.488281 91.46875 88.039062 89.996094 C 87.914062 89.917969 87.828125 89.792969 87.792969 89.652344 C 87.757812 89.507812 87.78125 89.355469 87.859375 89.230469 C 87.933594 89.101562 88.054688 89.011719 88.199219 88.972656 C 88.339844 88.9375 88.492188 88.957031 88.621094 89.027344 C 91.167969 90.554688 99.878906 98.402344 104.5625 102.621094 C 105.871094 103.792969 106.8125 104.644531 107.167969 104.945312 C 107.582031 105.316406 107.972656 105.710938 108.34375 106.125 C 110.015625 107.910156 111.414062 109.207031 112.882812 108.398438 C 112.945312 108.359375 113.019531 108.332031 113.09375 108.324219 C 113.171875 108.3125 113.246094 108.320312 113.320312 108.335938 C 113.394531 108.355469 113.460938 108.390625 113.523438 108.4375 C 113.582031 108.484375 113.632812 108.542969 113.667969 108.609375 C 113.707031 108.675781 113.730469 108.75 113.738281 108.824219 C 113.746094 108.902344 113.738281 108.980469 113.714844 109.050781 C 113.691406 109.125 113.65625 109.191406 113.605469 109.25 C 113.554688 109.308594 113.496094 109.355469 113.429688 109.390625 C 112.984375 109.644531 112.484375 109.78125 111.972656 109.785156 Z M 111.972656 109.785156 " fill-opacity="1" fill-rule="nonzero"/><path fill="#52381e" d="M 76.4375 90.691406 C 76.351562 90.691406 76.273438 90.671875 76.195312 90.636719 C 76.121094 90.601562 76.054688 90.550781 76.003906 90.484375 C 75.226562 89.554688 74.800781 88.664062 74.695312 87.765625 C 74.554688 86.5625 75.085938 85.390625 76.007812 84.847656 C 76.800781 84.386719 77.683594 84.390625 78.285156 84.472656 C 80.066406 84.722656 82.589844 85.59375 83.90625 86.253906 C 84.039062 86.320312 84.140625 86.4375 84.1875 86.582031 C 84.234375 86.722656 84.222656 86.878906 84.15625 87.011719 C 84.089844 87.148438 83.972656 87.25 83.828125 87.296875 C 83.6875 87.34375 83.53125 87.332031 83.398438 87.265625 C 82.160156 86.644531 79.792969 85.828125 78.125 85.59375 C 77.527344 85.507812 76.980469 85.59375 76.582031 85.824219 C 76.046875 86.140625 75.734375 86.882812 75.820312 87.636719 C 75.898438 88.308594 76.242188 89.003906 76.871094 89.757812 C 76.96875 89.875 77.015625 90.023438 77 90.171875 C 76.984375 90.320312 76.914062 90.460938 76.796875 90.554688 C 76.699219 90.640625 76.570312 90.6875 76.4375 90.691406 Z M 76.4375 90.691406 " fill-opacity="1" fill-rule="nonzero"/><path fill="#52381e" d="M 79.890625 96.007812 C 79.808594 96.007812 79.726562 95.988281 79.652344 95.953125 C 79.574219 95.914062 79.507812 95.863281 79.457031 95.800781 C 78.753906 94.949219 78.117188 94.050781 77.550781 93.105469 C 77.476562 92.976562 77.453125 92.820312 77.488281 92.675781 C 77.527344 92.53125 77.617188 92.40625 77.746094 92.328125 C 77.875 92.25 78.03125 92.226562 78.175781 92.265625 C 78.320312 92.300781 78.445312 92.394531 78.523438 92.523438 C 79.0625 93.417969 79.664062 94.273438 80.328125 95.078125 C 80.394531 95.160156 80.441406 95.261719 80.453125 95.367188 C 80.464844 95.476562 80.449219 95.582031 80.402344 95.679688 C 80.359375 95.777344 80.285156 95.859375 80.195312 95.917969 C 80.105469 95.976562 80 96.007812 79.890625 96.007812 Z M 79.890625 96.007812 " fill-opacity="1" fill-rule="nonzero"/><path fill="#52381e" d="M 90.75 111.339844 C 90.652344 111.339844 90.554688 111.3125 90.46875 111.261719 C 90.382812 111.214844 90.308594 111.144531 90.257812 111.054688 C 87.804688 106.765625 85.007812 102.679688 81.898438 98.84375 C 81.808594 98.726562 81.765625 98.578125 81.785156 98.433594 C 81.800781 98.285156 81.875 98.152344 81.988281 98.058594 C 82.101562 97.96875 82.25 97.921875 82.394531 97.933594 C 82.542969 97.949219 82.675781 98.019531 82.773438 98.128906 C 85.925781 102.015625 88.757812 106.152344 91.242188 110.496094 C 91.277344 110.558594 91.304688 110.628906 91.3125 110.703125 C 91.320312 110.777344 91.316406 110.851562 91.296875 110.925781 C 91.277344 110.996094 91.242188 111.0625 91.199219 111.121094 C 91.152344 111.179688 91.097656 111.230469 91.03125 111.269531 C 90.945312 111.3125 90.847656 111.339844 90.75 111.339844 Z M 90.75 111.339844 " fill-opacity="1" fill-rule="nonzero"/><path fill="#52381e" d="M 113.652344 138.6875 C 112.507812 138.6875 111.378906 138.324219 110.550781 137.457031 C 110.5 137.402344 110.460938 137.339844 110.433594 137.269531 C 110.40625 137.199219 110.394531 137.125 110.394531 137.050781 C 110.398438 136.976562 110.414062 136.90625 110.445312 136.835938 C 110.472656 136.769531 110.515625 136.707031 110.570312 136.65625 C 110.625 136.605469 110.6875 136.566406 110.757812 136.539062 C 110.828125 136.511719 110.902344 136.5 110.976562 136.5 C 111.050781 136.503906 111.125 136.519531 111.191406 136.550781 C 111.257812 136.578125 111.320312 136.621094 111.371094 136.675781 C 112.554688 137.917969 114.648438 137.726562 116.015625 136.910156 C 117.613281 135.960938 118.726562 134.308594 119.605469 132.820312 C 123.078125 126.929688 126.132812 121.148438 129.082031 115.5625 C 132.660156 108.792969 136.039062 102.40625 140.050781 95.917969 C 140.996094 94.398438 141.75 93.253906 142.480469 92.214844 C 142.523438 92.15625 142.578125 92.105469 142.640625 92.0625 C 142.703125 92.023438 142.773438 91.996094 142.847656 91.984375 C 142.917969 91.972656 142.996094 91.976562 143.066406 91.992188 C 143.140625 92.007812 143.207031 92.039062 143.269531 92.082031 C 143.328125 92.125 143.378906 92.179688 143.421875 92.242188 C 143.460938 92.304688 143.488281 92.375 143.5 92.449219 C 143.511719 92.523438 143.507812 92.597656 143.496094 92.667969 C 143.476562 92.742188 143.445312 92.808594 143.402344 92.871094 C 142.679688 93.890625 141.945312 95.015625 141.015625 96.515625 C 137.023438 102.964844 133.652344 109.339844 130.082031 116.089844 C 127.121094 121.695312 124.058594 127.488281 120.578125 133.398438 C 119.625 135.011719 118.40625 136.808594 116.589844 137.890625 C 115.695312 138.40625 114.683594 138.683594 113.652344 138.6875 Z M 113.652344 138.6875 " fill-opacity="1" fill-rule="nonzero"/><path fill="#52381e" d="M 145.023438 89.6875 C 144.9375 89.6875 144.847656 89.664062 144.765625 89.625 C 144.6875 89.582031 144.617188 89.523438 144.566406 89.453125 C 144.511719 89.378906 144.480469 89.296875 144.464844 89.207031 C 144.453125 89.117188 144.460938 89.027344 144.488281 88.941406 C 144.75 88.15625 145.160156 87.425781 145.699219 86.792969 C 145.746094 86.734375 145.804688 86.6875 145.871094 86.652344 C 145.9375 86.621094 146.007812 86.601562 146.082031 86.59375 C 146.15625 86.589844 146.234375 86.597656 146.304688 86.621094 C 146.375 86.640625 146.441406 86.679688 146.496094 86.726562 C 146.550781 86.777344 146.597656 86.835938 146.632812 86.902344 C 146.667969 86.964844 146.6875 87.039062 146.691406 87.113281 C 146.699219 87.1875 146.6875 87.261719 146.667969 87.332031 C 146.644531 87.402344 146.609375 87.46875 146.558594 87.523438 C 146.121094 88.046875 145.78125 88.648438 145.570312 89.296875 C 145.53125 89.410156 145.457031 89.511719 145.363281 89.582031 C 145.261719 89.652344 145.144531 89.6875 145.023438 89.6875 Z M 145.023438 89.6875 " fill-opacity="1" fill-rule="nonzero"/><g clip-path="url(#d3350c1746)"><path fill="#52381e" d="M 155.382812 72.238281 C 155.277344 72.238281 155.171875 72.207031 155.082031 72.152344 C 154.992188 72.097656 154.921875 72.015625 154.875 71.917969 C 154.828125 71.824219 154.808594 71.71875 154.820312 71.613281 C 154.832031 71.507812 154.871094 71.40625 154.9375 71.320312 C 156.882812 68.855469 162.269531 60.882812 161.46875 58.40625 C 161.308594 57.90625 161.058594 57.796875 160.882812 57.753906 C 159.792969 57.496094 157.65625 59.085938 157.023438 59.734375 C 156.917969 59.839844 156.777344 59.898438 156.628906 59.898438 C 156.480469 59.898438 156.339844 59.839844 156.234375 59.738281 C 156.128906 59.632812 156.066406 59.492188 156.0625 59.347656 C 156.058594 59.199219 156.113281 59.054688 156.214844 58.945312 C 156.757812 58.390625 159.339844 56.234375 161.140625 56.65625 C 161.613281 56.769531 162.238281 57.101562 162.546875 58.0625 C 163.738281 61.761719 155.90625 71.921875 155.828125 72.027344 C 155.773438 72.09375 155.707031 72.148438 155.628906 72.183594 C 155.550781 72.21875 155.46875 72.238281 155.382812 72.238281 Z M 155.382812 72.238281 " fill-opacity="1" fill-rule="nonzero"/></g><path fill="#52381e" d="M 142.222656 74.726562 C 142.109375 74.726562 142 74.691406 141.910156 74.632812 C 141.816406 74.570312 141.742188 74.480469 141.699219 74.378906 C 141.65625 74.277344 141.644531 74.164062 141.667969 74.054688 C 141.6875 73.945312 141.738281 73.84375 141.816406 73.765625 C 142.296875 73.269531 143.175781 72.335938 144.191406 71.25 C 148.121094 67.066406 151.730469 63.257812 152.734375 62.59375 C 152.796875 62.550781 152.863281 62.523438 152.9375 62.507812 C 153.011719 62.496094 153.085938 62.496094 153.160156 62.511719 C 153.230469 62.523438 153.300781 62.554688 153.363281 62.59375 C 153.421875 62.636719 153.476562 62.691406 153.519531 62.75 C 153.558594 62.8125 153.589844 62.882812 153.601562 62.957031 C 153.617188 63.027344 153.617188 63.105469 153.601562 63.175781 C 153.585938 63.25 153.558594 63.320312 153.515625 63.378906 C 153.472656 63.441406 153.421875 63.496094 153.359375 63.535156 C 152.382812 64.179688 147.773438 69.09375 145.011719 72.023438 C 143.992188 73.109375 143.109375 74.050781 142.625 74.550781 C 142.570312 74.605469 142.507812 74.648438 142.441406 74.679688 C 142.371094 74.707031 142.296875 74.722656 142.222656 74.726562 Z M 142.222656 74.726562 " fill-opacity="1" fill-rule="nonzero"/></svg>