<svg xmlns="http://www.w3.org/2000/svg" xmlns:xlink="http://www.w3.org/1999/xlink" width="500" zoomAndPan="magnify" viewBox="0 0 375 374.999991" height="500" preserveAspectRatio="xMidYMid meet" version="1.0"><defs><clipPath id="2cd6f970bb"><path d="M 30.496094 106 L 45 106 L 45 123 L 30.496094 123 Z M 30.496094 106 " clip-rule="nonzero"/></clipPath><clipPath id="20466c34d3"><path d="M 347 219 L 361.996094 219 L 361.996094 236 L 347 236 Z M 347 219 " clip-rule="nonzero"/></clipPath><clipPath id="8401e5d3ab"><path d="M 121 44.542969 L 129 44.542969 L 129 59 L 121 59 Z M 121 44.542969 " clip-rule="nonzero"/></clipPath></defs><path fill="#52381e" d="M 42.898438 129.976562 C 50.433594 114.851562 62.117188 102.1875 76.402344 93.398438 C 81.726562 90.167969 87.3125 87.710938 93.15625 85.902344 C 113.671875 79.441406 136.398438 80.734375 155.875 89.390625 C 164.578125 93.011719 172.628906 98.4375 179.511719 104.773438 C 188.339844 112.914062 195.613281 123.253906 198.988281 134.886719 C 200.160156 138.503906 198.46875 138.375 196 136.050781 C 194.703125 134.886719 193.277344 133.078125 191.976562 131.007812 C 190.289062 128.941406 188.730469 126.484375 187.042969 123.769531 C 181.066406 114.207031 172.757812 106.066406 163.148438 99.988281 C 153.410156 93.914062 142.371094 90.039062 130.8125 88.230469 C 129.125 87.839844 127.308594 87.839844 125.621094 87.710938 C 123.800781 87.582031 122.113281 87.324219 120.296875 87.453125 C 116.789062 87.582031 113.152344 87.582031 109.648438 88.230469 C 102.503906 89.003906 95.621094 91.332031 88.871094 93.785156 C 85.234375 95.335938 81.726562 97.019531 78.480469 99.085938 C 76.792969 100.121094 75.234375 101.28125 73.675781 102.445312 L 71.078125 103.996094 L 68.871094 105.933594 C 62.898438 111.105469 57.574219 117.050781 53.289062 123.640625 C 50.5625 127.648438 48.355469 132.042969 46.40625 136.4375 C 44.589844 140.960938 43.03125 145.613281 41.859375 150.265625 C 38.484375 164.613281 39.003906 179.992188 43.679688 193.949219 C 47.445312 204.808594 53.417969 214.5 61.210938 222.382812 C 61.988281 223.289062 62.898438 224.0625 63.808594 224.96875 C 64.714844 225.742188 65.625 226.648438 66.535156 227.425781 C 73.546875 233.367188 76.015625 235.050781 76.792969 237.507812 C 76.921875 238.023438 77.3125 238.667969 77.3125 239.1875 C 77.441406 239.960938 76.535156 239.960938 74.714844 239.445312 C 73.804688 239.1875 72.765625 238.667969 71.597656 238.023438 C 70.429688 237.375 69 236.472656 67.574219 235.4375 C 58.871094 229.363281 51.082031 221.089844 45.367188 211.398438 C 42.511719 206.617188 40.171875 201.445312 38.226562 196.019531 C 36.40625 190.589844 35.109375 185.03125 34.460938 179.347656 C 33.421875 170.945312 33.550781 162.414062 34.980469 154.015625 C 36.40625 145.613281 39.003906 137.472656 42.769531 129.84375 Z M 42.898438 129.976562 " fill-opacity="1" fill-rule="evenodd"/><path fill="#52381e" d="M 119.496094 256.117188 C 115.210938 261.15625 110.015625 264.90625 104.5625 268.007812 C 102.617188 269.042969 100.667969 270.335938 98.589844 271.109375 C 97.03125 271.886719 95.34375 272.402344 93.65625 273.046875 L 91.1875 273.953125 L 89.890625 274.339844 L 88.332031 274.855469 C 85.734375 275.632812 83.136719 276.40625 80.667969 276.792969 C 78.460938 277.183594 75.214844 278.21875 75.214844 277.3125 C 76.253906 275.761719 77.421875 273.953125 78.332031 272.53125 L 79.628906 270.335938 L 80.410156 268.394531 C 80.667969 267.746094 80.929688 267.101562 81.058594 266.585938 L 81.320312 265.421875 C 81.707031 263.871094 81.96875 262.320312 81.96875 260.640625 C 82.359375 256.503906 81.839844 252.367188 81.96875 248.101562 C 81.96875 246.8125 83.527344 246.683594 85.085938 247.714844 C 86.644531 248.75 88.332031 250.816406 88.460938 253.53125 C 88.589844 257.152344 88.332031 260.769531 87.683594 264.386719 C 87.421875 265.292969 87.292969 266.199219 87.03125 267.101562 L 86.644531 268.265625 C 86.644531 268.265625 86.644531 268.265625 86.511719 268.265625 C 86.382812 268.394531 86.253906 268.523438 85.992188 268.78125 L 85.734375 269.171875 C 85.734375 269.296875 85.734375 269.296875 85.734375 269.296875 C 85.863281 269.429688 85.863281 269.429688 86.125 269.429688 C 86.382812 269.429688 86.773438 269.429688 87.164062 269.296875 L 87.550781 269.171875 L 88.070312 269.042969 C 88.332031 268.910156 88.71875 268.78125 88.980469 268.652344 L 90.796875 268.007812 C 93.265625 266.972656 95.734375 265.9375 98.070312 264.777344 C 103.265625 262.191406 108.199219 259.089844 112.355469 255.082031 C 113.003906 254.566406 113.523438 253.789062 114.171875 253.144531 C 114.691406 252.496094 115.339844 251.851562 115.859375 251.203125 L 117.808594 248.363281 L 118.328125 247.457031 L 118.457031 247.328125 L 119.238281 247.328125 L 121.183594 247.457031 L 123.652344 247.585938 C 124.300781 247.585938 125.082031 247.714844 125.730469 247.714844 C 127.160156 247.714844 128.457031 247.714844 129.886719 247.714844 C 132.613281 247.585938 135.339844 247.457031 138.066406 246.941406 C 142.222656 246.292969 146.246094 245 150.144531 243.578125 C 151.050781 243.191406 151.832031 242.933594 152.742188 242.546875 C 155.988281 241.382812 157.027344 241.253906 158.324219 242.417969 C 158.585938 242.675781 158.972656 242.933594 159.234375 243.191406 C 160.011719 244.097656 159.105469 245.648438 156.765625 246.941406 C 149.753906 250.6875 141.3125 252.757812 132.871094 253.402344 C 129.753906 253.660156 126.507812 253.660156 123.394531 253.53125 L 122.09375 253.53125 C 121.964844 253.53125 121.703125 253.53125 121.703125 253.53125 L 121.574219 253.660156 L 121.183594 254.175781 C 120.664062 254.953125 120.144531 255.601562 119.496094 256.117188 Z M 119.496094 256.117188 " fill-opacity="1" fill-rule="evenodd"/><path fill="#52381e" d="M 208.335938 148.457031 C 203.140625 150.652344 198.207031 153.625 193.660156 156.855469 C 189.117188 160.347656 184.960938 164.09375 181.324219 168.488281 C 177.820312 172.882812 174.574219 177.535156 172.105469 182.707031 C 169.765625 187.746094 167.820312 193.175781 166.652344 198.730469 C 164.964844 206.875 164.832031 215.273438 165.871094 223.417969 C 167.949219 237.761719 174.703125 251.722656 185.351562 261.933594 C 195.742188 272.402344 209.894531 278.992188 224.566406 280.800781 C 231.0625 281.578125 237.8125 281.449219 244.308594 280.542969 C 245.996094 280.285156 247.550781 280.027344 249.242188 279.636719 C 250.800781 279.25 252.488281 278.992188 254.046875 278.476562 L 256.382812 277.828125 L 258.203125 277.3125 L 259.109375 277.054688 L 259.628906 276.925781 C 259.761719 276.925781 259.890625 277.054688 260.019531 277.183594 L 262.617188 279.378906 C 263.136719 279.898438 263.917969 280.285156 264.5625 280.671875 C 269.238281 283.644531 274.824219 284.808594 280.539062 285.324219 C 283.394531 285.453125 286.25 285.453125 289.109375 285.195312 L 290.40625 285.066406 L 291.316406 284.9375 L 292.222656 284.808594 L 292.613281 284.679688 C 292.742188 284.679688 292.742188 284.679688 292.875 284.679688 L 292.742188 284.546875 C 292.355469 284.164062 292.09375 283.773438 291.703125 283.386719 L 291.183594 282.738281 L 290.667969 281.964844 C 290.40625 281.707031 290.277344 281.320312 290.015625 281.058594 C 288.457031 278.605469 287.289062 275.890625 286.511719 273.046875 C 285.859375 270.589844 286.121094 269.296875 286.511719 269.042969 C 287.03125 268.78125 287.679688 269.558594 288.71875 270.980469 C 289.757812 272.402344 291.054688 274.339844 292.875 276.535156 C 293.261719 277.054688 293.785156 277.699219 294.300781 278.21875 C 294.5625 278.476562 294.820312 278.734375 295.082031 279.121094 L 295.472656 279.507812 C 295.601562 279.769531 295.992188 280.15625 296.25 280.414062 C 298.328125 282.867188 301.703125 285.84375 304.691406 288.945312 C 304.042969 289.203125 303.132812 289.332031 302.222656 289.589844 C 301.3125 289.847656 300.40625 289.976562 299.496094 290.238281 C 298.585938 290.496094 297.550781 290.625 296.507812 290.882812 C 295.472656 291.011719 294.300781 291.269531 293.261719 291.398438 L 291.703125 291.65625 L 290.148438 291.785156 C 289.628906 291.785156 288.976562 291.914062 288.457031 291.914062 C 287.289062 291.914062 286.121094 292.046875 284.953125 292.046875 C 282.613281 292.046875 280.277344 291.914062 277.808594 291.65625 C 273.132812 291.140625 268.332031 289.976562 263.785156 287.652344 C 262.617188 287.136719 261.578125 286.359375 260.539062 285.710938 C 260.019531 285.324219 259.5 285.066406 258.980469 284.679688 L 258.203125 284.03125 C 258.203125 284.03125 258.203125 284.03125 258.070312 283.902344 L 254.953125 284.808594 C 252.746094 285.324219 250.410156 285.84375 248.203125 286.230469 C 245.863281 286.488281 243.65625 286.875 241.320312 287.136719 C 232.101562 287.910156 222.621094 287.265625 213.660156 284.808594 C 204.699219 282.351562 196.128906 278.21875 188.859375 272.53125 C 184.441406 269.167969 180.417969 265.292969 176.78125 261.027344 C 173.144531 256.761719 170.027344 251.980469 167.429688 246.941406 C 162.105469 236.859375 159.507812 225.484375 159.378906 214.242188 C 159.378906 208.039062 160.160156 201.832031 161.457031 195.890625 C 162.886719 189.941406 164.964844 184 167.820312 178.570312 C 169.121094 175.726562 170.9375 173.269531 172.496094 170.558594 C 174.3125 168.101562 176.128906 165.515625 178.207031 163.320312 C 182.234375 158.667969 186.910156 154.660156 191.972656 151.042969 C 204.3125 142.382812 219.246094 137.210938 234.4375 136.566406 C 237.292969 136.308594 240.152344 136.566406 243.007812 136.695312 C 244.4375 136.695312 245.863281 136.953125 247.292969 137.210938 C 248.722656 137.46875 250.148438 137.46875 251.578125 137.859375 C 254.304688 138.503906 257.164062 139.023438 259.890625 140.054688 C 261.1875 140.574219 262.617188 140.960938 263.917969 141.476562 L 267.8125 143.15625 L 269.757812 144.0625 L 271.578125 145.097656 L 275.34375 147.164062 L 278.851562 149.492188 C 280.015625 150.265625 281.1875 151.042969 282.355469 151.945312 L 285.734375 154.660156 C 286.769531 155.566406 287.808594 156.597656 288.847656 157.632812 C 290.925781 159.570312 292.742188 161.769531 294.5625 163.835938 C 300.144531 170.6875 304.429688 178.441406 307.289062 186.714844 C 310.144531 194.984375 311.3125 203.773438 310.796875 212.5625 C 310.535156 216.4375 310.144531 220.1875 309.234375 224.0625 C 307.546875 231.171875 305.46875 235.566406 303.78125 238.410156 C 302.09375 241.253906 300.664062 242.675781 299.238281 243.578125 C 298.585938 243.964844 297.808594 244.613281 297.289062 244.742188 C 296.378906 245 296.507812 243.710938 297.417969 241.382812 C 298.328125 239.054688 299.757812 235.4375 301.445312 230.785156 C 303.78125 223.933594 305.082031 216.566406 305.082031 209.199219 C 304.949219 201.832031 303.78125 194.464844 301.3125 187.359375 C 298.847656 180.378906 295.210938 173.660156 290.40625 167.714844 C 285.734375 161.769531 279.886719 156.726562 273.523438 152.722656 C 268.71875 149.75 263.65625 147.164062 258.203125 145.613281 C 255.605469 144.578125 252.746094 144.191406 250.019531 143.546875 C 248.59375 143.285156 247.164062 143.15625 245.863281 143.027344 L 243.789062 142.769531 C 243.136719 142.769531 242.359375 142.769531 241.710938 142.640625 C 230.414062 141.734375 218.855469 144.0625 208.335938 148.457031 Z M 208.335938 148.457031 " fill-opacity="1" fill-rule="evenodd"/><path fill="#ffffff" d="M 153.023438 147.527344 C 153.023438 148.574219 152.96875 149.617188 152.867188 150.660156 C 152.765625 151.703125 152.613281 152.738281 152.40625 153.761719 C 152.203125 154.789062 151.949219 155.804688 151.644531 156.804688 C 151.339844 157.808594 150.988281 158.792969 150.589844 159.757812 C 150.1875 160.726562 149.742188 161.671875 149.246094 162.59375 C 148.753906 163.515625 148.21875 164.414062 147.636719 165.285156 C 147.054688 166.15625 146.429688 166.996094 145.765625 167.804688 C 145.101562 168.613281 144.402344 169.386719 143.660156 170.128906 C 142.921875 170.867188 142.144531 171.570312 141.335938 172.234375 C 140.527344 172.898438 139.6875 173.519531 138.816406 174.101562 C 137.949219 174.683594 137.050781 175.222656 136.128906 175.714844 C 135.203125 176.207031 134.257812 176.65625 133.292969 177.054688 C 132.324219 177.457031 131.339844 177.808594 130.339844 178.113281 C 129.335938 178.414062 128.324219 178.671875 127.296875 178.875 C 126.269531 179.078125 125.234375 179.230469 124.195312 179.335938 C 123.152344 179.4375 122.109375 179.488281 121.0625 179.488281 C 120.015625 179.488281 118.972656 179.4375 117.929688 179.335938 C 116.886719 179.230469 115.851562 179.078125 114.828125 178.875 C 113.800781 178.671875 112.785156 178.414062 111.785156 178.113281 C 110.78125 177.808594 109.796875 177.457031 108.832031 177.054688 C 107.863281 176.65625 106.917969 176.207031 105.996094 175.714844 C 105.074219 175.222656 104.175781 174.683594 103.304688 174.101562 C 102.433594 173.519531 101.59375 172.898438 100.785156 172.234375 C 99.976562 171.570312 99.203125 170.867188 98.460938 170.128906 C 97.722656 169.386719 97.019531 168.613281 96.355469 167.804688 C 95.691406 166.996094 95.070312 166.15625 94.488281 165.285156 C 93.90625 164.414062 93.367188 163.515625 92.875 162.59375 C 92.382812 161.671875 91.933594 160.726562 91.535156 159.757812 C 91.132812 158.792969 90.78125 157.808594 90.476562 156.804688 C 90.175781 155.804688 89.921875 154.789062 89.714844 153.761719 C 89.511719 152.738281 89.359375 151.703125 89.253906 150.660156 C 89.152344 149.617188 89.101562 148.574219 89.101562 147.527344 C 89.101562 146.480469 89.152344 145.4375 89.253906 144.394531 C 89.359375 143.355469 89.511719 142.320312 89.714844 141.292969 C 89.921875 140.265625 90.175781 139.253906 90.476562 138.25 C 90.78125 137.25 91.132812 136.265625 91.535156 135.296875 C 91.933594 134.332031 92.382812 133.386719 92.875 132.460938 C 93.367188 131.539062 93.90625 130.640625 94.488281 129.773438 C 95.070312 128.902344 95.691406 128.0625 96.355469 127.253906 C 97.019531 126.445312 97.722656 125.667969 98.460938 124.929688 C 99.203125 124.1875 99.976562 123.488281 100.785156 122.824219 C 101.59375 122.160156 102.433594 121.535156 103.304688 120.953125 C 104.175781 120.371094 105.074219 119.835938 105.996094 119.34375 C 106.917969 118.847656 107.863281 118.402344 108.832031 118 C 109.796875 117.601562 110.78125 117.25 111.785156 116.945312 C 112.785156 116.640625 113.800781 116.386719 114.828125 116.183594 C 115.851562 115.976562 116.886719 115.824219 117.929688 115.722656 C 118.972656 115.621094 120.015625 115.566406 121.0625 115.566406 C 122.109375 115.566406 123.152344 115.621094 124.195312 115.722656 C 125.234375 115.824219 126.269531 115.976562 127.296875 116.183594 C 128.324219 116.386719 129.335938 116.640625 130.339844 116.945312 C 131.339844 117.25 132.324219 117.601562 133.292969 118 C 134.257812 118.402344 135.203125 118.847656 136.128906 119.34375 C 137.050781 119.835938 137.949219 120.371094 138.816406 120.953125 C 139.6875 121.535156 140.527344 122.160156 141.335938 122.824219 C 142.144531 123.488281 142.921875 124.1875 143.660156 124.929688 C 144.402344 125.667969 145.101562 126.445312 145.765625 127.253906 C 146.429688 128.0625 147.054688 128.902344 147.636719 129.773438 C 148.21875 130.640625 148.753906 131.539062 149.246094 132.460938 C 149.742188 133.386719 150.1875 134.332031 150.589844 135.296875 C 150.988281 136.265625 151.339844 137.25 151.644531 138.25 C 151.949219 139.253906 152.203125 140.265625 152.40625 141.292969 C 152.613281 142.320312 152.765625 143.355469 152.867188 144.394531 C 152.96875 145.4375 153.023438 146.480469 153.023438 147.527344 Z M 153.023438 147.527344 " fill-opacity="1" fill-rule="nonzero"/><path fill="#52381e" d="M 131.070312 157.503906 C 133.539062 154.53125 134.839844 149.878906 134.449219 145.484375 C 134.320312 143.933594 133.800781 142.382812 133.148438 140.960938 C 131.203125 135.917969 124.839844 133.207031 118.867188 134.367188 C 116.269531 134.886719 113.671875 136.179688 111.59375 137.859375 C 108.867188 140.054688 107.046875 143.027344 105.75 146.257812 C 105.359375 147.292969 104.582031 147.035156 104.0625 145.871094 C 103.542969 144.707031 103.28125 142.382812 104.453125 140.3125 C 108.476562 132.558594 117.957031 128.164062 126.785156 130.492188 C 129.382812 131.136719 131.851562 132.300781 134.058594 134.109375 C 136.265625 135.917969 137.824219 138.375 138.734375 140.832031 C 140.8125 146.386719 140.550781 152.332031 138.34375 157.761719 C 136.914062 161.121094 134.449219 163.835938 131.851562 166.035156 C 127.957031 169.394531 123.671875 171.71875 120.421875 174.820312 C 119.125 175.984375 117.957031 177.40625 117.175781 178.699219 C 116.398438 180.121094 115.878906 181.542969 115.359375 183.222656 C 115.097656 184 114.96875 184.773438 114.582031 185.550781 C 113.410156 188.523438 112.371094 189.167969 110.554688 189.039062 C 110.164062 189.039062 109.644531 189.039062 109.257812 188.910156 C 107.957031 188.523438 107.566406 186.96875 107.957031 184.902344 C 108.347656 183.351562 108.605469 181.800781 109.125 180.121094 C 109.644531 178.441406 110.554688 176.371094 111.722656 174.5625 C 114.191406 171.074219 117.175781 168.746094 120.035156 166.550781 C 124.320312 163.449219 128.34375 160.734375 130.683594 157.503906 Z M 131.070312 157.503906 " fill-opacity="1" fill-rule="evenodd"/><path fill="#52381e" d="M 110.160156 202.21875 C 110.160156 202.351562 110.160156 202.480469 110.160156 202.609375 C 109.898438 205.324219 107.820312 206.226562 105.355469 205.96875 C 101.976562 205.582031 100.679688 201.832031 102.496094 199.25 C 105.09375 195.5 110.160156 198.214844 110.160156 202.21875 Z M 110.160156 202.21875 " fill-opacity="1" fill-rule="evenodd"/><path fill="#52381e" d="M 209.75 282.609375 C 216.765625 285.066406 224.164062 286.488281 231.699219 286.617188 C 234.421875 286.617188 237.152344 286.617188 239.878906 286.230469 L 243.515625 285.84375 C 244.683594 285.710938 245.851562 285.453125 247.019531 285.195312 L 250.527344 284.546875 C 251.695312 284.289062 252.863281 283.902344 254.03125 283.644531 L 258.058594 282.480469 C 258.578125 282.09375 258.835938 282.738281 259.355469 283 L 260.265625 283.773438 L 261.5625 284.9375 C 262.472656 285.582031 263.511719 286.230469 264.550781 286.875 C 265.589844 287.390625 266.757812 287.910156 267.796875 288.425781 C 271.695312 289.976562 275.976562 290.625 280.261719 290.753906 C 285.71875 290.882812 291.171875 290.105469 296.496094 289.074219 C 298.183594 288.6875 298.183594 289.589844 296.886719 290.625 C 295.585938 291.65625 292.988281 293.078125 289.742188 293.464844 C 283.898438 294.113281 277.925781 294.113281 272.082031 292.820312 C 269.09375 292.175781 266.371094 291.140625 263.640625 289.71875 C 262.34375 288.945312 261.042969 288.167969 259.746094 287.265625 L 258.058594 285.84375 C 257.796875 285.710938 257.929688 285.710938 257.929688 285.710938 L 257.796875 285.582031 C 257.796875 285.582031 257.667969 285.582031 257.539062 285.582031 C 251.046875 287.523438 243.773438 289.074219 236.761719 289.460938 C 228.96875 289.847656 221.046875 288.945312 213.515625 286.875 C 212.347656 286.488281 211.179688 286.230469 210.011719 285.84375 L 206.632812 284.546875 C 204.296875 283.773438 202.21875 282.609375 200.011719 281.578125 C 193.519531 278.214844 187.671875 273.953125 182.480469 268.910156 C 178.585938 264.90625 174.820312 260.769531 171.960938 256.117188 C 171.3125 255.082031 170.664062 254.046875 170.015625 253.011719 C 167.804688 249.007812 167.417969 247.585938 167.804688 246.421875 C 167.9375 246.164062 167.9375 245.777344 168.066406 245.648438 C 168.457031 245 169.753906 246.421875 171.3125 249.265625 C 176.117188 257.539062 182.351562 265.550781 190.273438 271.753906 C 195.984375 276.40625 202.605469 280.15625 209.75 282.609375 Z M 209.75 282.609375 " fill-opacity="1" fill-rule="evenodd"/><path fill="#52381e" d="M 123.921875 255.210938 L 122.492188 255.082031 L 122.363281 255.082031 L 120.675781 257.40625 C 119.246094 258.960938 117.6875 260.640625 116 262.0625 C 114.832031 263.097656 113.53125 264.128906 112.363281 265.035156 C 107.820312 268.265625 102.882812 270.589844 97.820312 272.660156 C 95.613281 273.5625 93.273438 274.46875 91.066406 275.371094 C 88.210938 276.40625 85.351562 277.570312 82.238281 277.957031 C 80.289062 278.21875 82.105469 274.855469 85.222656 273.953125 C 91.066406 272.144531 96.78125 270.074219 102.363281 267.617188 C 105.742188 266.066406 108.988281 264 111.84375 261.675781 C 112.625 261.027344 113.402344 260.378906 114.183594 259.734375 C 114.960938 259.085938 115.738281 258.441406 116.390625 257.667969 C 117.039062 256.890625 117.816406 256.246094 118.46875 255.46875 L 120.542969 252.625 L 120.804688 252.367188 L 123.140625 252.367188 L 125.089844 252.496094 C 126.386719 252.496094 127.6875 252.625 128.984375 252.625 C 132.882812 252.625 136.777344 252.496094 140.542969 251.851562 C 143.53125 251.332031 146.257812 250.300781 148.855469 249.136719 L 150.542969 248.230469 C 152.621094 247.199219 153.398438 246.941406 154.308594 247.328125 C 154.4375 247.457031 154.699219 247.457031 154.828125 247.585938 C 155.347656 247.972656 154.699219 249.007812 153.140625 249.910156 C 148.464844 252.886719 142.621094 254.695312 136.777344 255.210938 C 132.492188 255.46875 128.207031 255.46875 123.921875 255.210938 Z M 123.921875 255.210938 " fill-opacity="1" fill-rule="evenodd"/><path stroke-linecap="butt" transform="matrix(1.319573, 0, 0, 1.319573, 30.499401, 44.544727)" fill="none" stroke-linejoin="miter" d="M 143.127915 51.323257 C 143.127915 50.538795 143.719962 49.949707 144.406737 49.949707 C 148.050789 49.754332 143.228563 55.141963 143.127915 51.323257 Z M 143.127915 51.323257 " stroke="#0a4020" stroke-width="0.6" stroke-opacity="1" stroke-miterlimit="4"/><path stroke-linecap="butt" transform="matrix(1.319573, 0, 0, 1.319573, 30.499401, 44.544727)" fill="none" stroke-linejoin="miter" d="M 85.663793 179.628811 C 85.663793 178.844348 86.255841 178.258221 86.942616 178.258221 C 90.583707 178.157573 85.761481 183.447517 85.663793 179.628811 Z M 85.663793 179.628811 " stroke="#0a4020" stroke-width="0.6" stroke-opacity="1" stroke-miterlimit="4"/><path fill="#52381e" d="M 265.207031 97.921875 C 265.988281 98.179688 266.507812 98.957031 266.246094 99.730469 C 265.339844 103.738281 261.050781 96.886719 265.207031 97.921875 Z M 265.207031 97.921875 " fill-opacity="1" fill-rule="evenodd"/><path fill="#b99876" d="M 244.621094 246.15625 C 261.328125 243.976562 273.164062 229.1875 271.050781 213.125 C 268.9375 197.058594 253.675781 185.800781 236.964844 187.976562 C 220.257812 190.15625 208.421875 204.941406 210.535156 221.007812 C 212.648438 237.074219 227.910156 248.332031 244.621094 246.15625 Z M 244.621094 246.15625 " fill-opacity="1" fill-rule="nonzero"/><path fill="#52381e" d="M 249.886719 181.285156 C 250.015625 180.894531 247.808594 179.605469 243.265625 178.957031 C 241.058594 178.699219 238.199219 178.570312 234.953125 179.214844 C 231.707031 179.863281 228.070312 181.027344 224.433594 183.222656 C 220.929688 185.417969 217.421875 188.652344 214.566406 192.65625 C 211.707031 196.664062 209.5 201.703125 208.332031 207.132812 C 207.164062 212.691406 207.292969 218.765625 209.242188 224.839844 C 210.28125 227.8125 211.578125 230.785156 213.394531 233.5 C 215.214844 236.210938 217.421875 238.796875 220.019531 240.867188 C 222.097656 242.675781 224.433594 243.964844 226.773438 245.257812 C 229.238281 246.421875 231.707031 247.328125 234.304688 247.972656 C 240.925781 249.523438 247.679688 248.878906 253.523438 246.8125 C 259.367188 244.613281 264.5625 241.125 268.195312 236.730469 C 270.144531 234.660156 271.441406 232.207031 272.742188 229.878906 C 273.261719 228.714844 273.78125 227.425781 274.300781 226.261719 C 274.691406 224.96875 275.210938 223.804688 275.339844 222.640625 C 276.507812 217.730469 276.378906 213.078125 275.597656 208.941406 C 274.820312 204.808594 273.390625 201.316406 271.832031 198.472656 C 270.273438 195.628906 268.457031 193.433594 266.898438 191.753906 C 263.78125 188.523438 261.574219 187.359375 261.3125 187.617188 C 261.054688 188.003906 262.742188 189.554688 265.339844 193.046875 C 267.808594 196.535156 271.054688 201.964844 272.09375 209.457031 C 272.613281 213.207031 272.484375 217.34375 271.3125 221.609375 C 271.054688 222.640625 270.664062 223.675781 270.273438 224.839844 C 269.882812 225.871094 269.363281 226.90625 268.847656 227.941406 C 267.675781 230.007812 266.378906 232.078125 264.691406 233.886719 C 261.445312 237.636719 257.027344 240.605469 251.964844 242.417969 C 246.898438 244.097656 241.058594 244.613281 235.472656 243.191406 C 233.136719 242.675781 231.054688 241.898438 228.980469 240.867188 C 227.03125 239.832031 224.953125 238.667969 223.265625 237.117188 C 221.058594 235.308594 219.109375 233.109375 217.554688 230.914062 C 215.996094 228.589844 214.824219 226.132812 213.917969 223.546875 C 212.226562 218.378906 211.96875 213.078125 212.878906 208.167969 C 213.785156 203.253906 215.605469 198.863281 218.070312 195.113281 C 220.539062 191.367188 223.523438 188.523438 226.511719 186.324219 C 229.628906 184.128906 232.746094 182.964844 235.601562 182.1875 C 238.457031 181.414062 241.058594 181.15625 243.132812 181.15625 C 247.421875 181.15625 249.757812 181.800781 249.886719 181.285156 Z M 249.886719 181.285156 " fill-opacity="1" fill-rule="nonzero"/><path fill="#52381e" d="M 253.40625 206.488281 C 253.277344 206.101562 252.757812 205.839844 251.71875 205.972656 C 250.683594 206.101562 249.25 206.617188 247.695312 207.78125 C 246.265625 208.941406 244.835938 210.492188 243.539062 212.304688 C 242.242188 214.113281 240.941406 216.179688 239.644531 218.25 C 239.382812 218.632812 239.125 219.152344 238.863281 219.539062 C 238.605469 219.929688 238.34375 220.445312 238.085938 220.832031 C 237.046875 222.515625 237.4375 221.996094 237.304688 222.125 C 237.304688 222.125 237.304688 222.125 237.175781 222.125 L 236.917969 221.996094 C 236.003906 221.476562 235.230469 221.089844 234.449219 220.703125 C 232.890625 219.929688 231.460938 219.410156 230.164062 219.023438 C 227.695312 218.25 226.136719 218.375 225.878906 219.023438 C 225.617188 219.667969 226.789062 220.574219 228.867188 221.996094 C 229.902344 222.640625 231.074219 223.546875 232.5 224.453125 C 233.148438 224.96875 233.929688 225.355469 234.578125 225.871094 C 235.230469 226.261719 235.878906 226.777344 236.527344 227.296875 C 237.304688 227.8125 238.085938 228.457031 238.992188 228.976562 C 240.160156 227.164062 241.332031 225.355469 242.5 223.417969 C 242.757812 223.03125 243.019531 222.515625 243.277344 222.125 C 243.539062 221.738281 243.800781 221.222656 244.058594 220.832031 C 245.355469 218.632812 246.527344 216.566406 247.5625 214.757812 C 248.601562 212.949219 249.511719 211.527344 250.421875 210.363281 C 251.851562 208.167969 253.539062 207.390625 253.40625 206.488281 Z M 253.40625 206.488281 " fill-opacity="1" fill-rule="nonzero"/><g clip-path="url(#2cd6f970bb)"><path fill="#52381e" d="M 33.285156 110.589844 C 33.675781 110.847656 34.195312 110.71875 34.84375 110.460938 C 35.492188 110.199219 36.53125 109.941406 37.441406 109.941406 C 38.347656 109.941406 39.128906 110.460938 39.648438 111.234375 C 39.777344 111.621094 39.90625 112.011719 39.777344 112.65625 C 39.648438 113.300781 39.386719 114.078125 39 114.851562 C 38.867188 115.113281 38.609375 115.5 38.480469 115.757812 C 38.21875 116.015625 38.089844 116.273438 37.828125 116.664062 C 37.441406 117.050781 37.179688 117.4375 36.921875 117.695312 L 36.789062 117.824219 C 36.789062 117.824219 36.789062 117.824219 36.660156 117.824219 C 36.53125 117.824219 36.660156 117.957031 36.402344 117.566406 C 36.140625 117.308594 35.882812 117.050781 35.621094 116.664062 C 35.363281 116.402344 35.101562 116.015625 34.84375 115.757812 C 34.453125 115.242188 34.195312 114.722656 33.933594 114.207031 C 33.542969 113.300781 33.414062 112.527344 33.414062 111.75 C 33.675781 111.363281 33.675781 110.847656 33.285156 110.589844 C 33.023438 110.328125 32.375 110.460938 31.726562 111.105469 C 30.945312 111.75 30.296875 113.300781 30.558594 115.242188 C 30.6875 116.144531 30.945312 117.179688 31.335938 118.085938 C 31.597656 118.601562 31.726562 118.988281 31.984375 119.375 C 32.246094 119.765625 32.503906 120.28125 32.894531 120.796875 C 33.15625 121.1875 34.0625 122.089844 34.84375 122.480469 C 35.75 122.996094 36.660156 123.125 37.699219 122.867188 C 38.21875 122.738281 38.609375 122.609375 39.128906 122.21875 C 39.386719 122.089844 39.519531 121.960938 39.777344 121.703125 L 40.039062 121.445312 L 40.296875 121.316406 C 40.816406 120.796875 41.207031 120.28125 41.59375 119.894531 C 41.855469 119.507812 42.246094 118.988281 42.503906 118.601562 C 42.765625 118.085938 43.023438 117.695312 43.285156 117.179688 C 43.933594 115.886719 44.324219 114.59375 44.453125 113.171875 C 44.582031 111.75 44.191406 110.070312 43.285156 108.777344 C 42.375 107.488281 41.207031 106.839844 40.039062 106.453125 C 38.738281 106.066406 37.570312 106.195312 36.660156 106.453125 C 34.84375 106.96875 33.804688 108.132812 33.285156 108.90625 C 32.894531 109.683594 33.023438 110.328125 33.285156 110.589844 Z M 33.285156 110.589844 " fill-opacity="1" fill-rule="nonzero"/></g><path fill="#76583b" d="M 281.195312 324.226562 C 281.585938 324.484375 282.101562 324.355469 282.753906 324.097656 C 283.402344 323.839844 284.441406 323.582031 285.351562 323.582031 C 286.261719 323.582031 287.039062 324.097656 287.558594 324.875 C 287.6875 325.261719 287.816406 325.648438 287.6875 326.292969 C 287.558594 326.941406 287.296875 327.71875 286.910156 328.492188 C 286.777344 328.75 286.519531 329.136719 286.386719 329.398438 C 286.128906 329.65625 286 329.914062 285.742188 330.300781 C 285.351562 330.691406 285.089844 331.078125 284.828125 331.335938 L 284.699219 331.464844 C 284.699219 331.464844 284.699219 331.464844 284.570312 331.464844 C 284.441406 331.464844 284.570312 331.59375 284.308594 331.207031 C 284.054688 330.949219 283.792969 330.691406 283.53125 330.300781 C 283.273438 330.042969 283.011719 329.65625 282.753906 329.398438 C 282.363281 328.882812 282.101562 328.363281 281.84375 327.84375 C 281.453125 326.941406 281.324219 326.164062 281.324219 325.390625 C 281.453125 325.132812 281.453125 324.484375 281.195312 324.226562 C 280.933594 323.96875 280.285156 324.097656 279.636719 324.746094 C 278.859375 325.390625 278.207031 326.941406 278.46875 328.882812 C 278.597656 329.785156 278.859375 330.820312 279.246094 331.722656 C 279.507812 332.242188 279.636719 332.628906 279.894531 333.015625 C 280.15625 333.402344 280.414062 333.921875 280.804688 334.4375 C 281.066406 334.824219 281.972656 335.730469 282.753906 336.117188 C 283.664062 336.636719 284.570312 336.765625 285.609375 336.503906 C 286.128906 336.375 286.519531 336.246094 287.039062 335.859375 C 287.296875 335.730469 287.429688 335.601562 287.6875 335.339844 L 287.949219 335.082031 L 288.207031 334.953125 C 288.726562 334.4375 289.117188 333.921875 289.503906 333.53125 C 289.765625 333.144531 290.15625 332.628906 290.414062 332.242188 C 290.675781 331.722656 290.933594 331.335938 291.191406 330.820312 C 291.84375 329.527344 292.234375 328.234375 292.363281 326.8125 C 292.492188 325.390625 292.101562 323.710938 291.191406 322.417969 C 290.285156 321.125 289.117188 320.480469 287.949219 320.089844 C 286.648438 319.703125 285.480469 319.832031 284.570312 320.089844 C 282.753906 320.609375 281.714844 321.773438 281.195312 322.546875 C 280.804688 323.453125 280.804688 324.097656 281.195312 324.226562 Z M 281.195312 324.226562 " fill-opacity="1" fill-rule="nonzero"/><g clip-path="url(#20466c34d3)"><path fill="#52381e" d="M 350.519531 223.546875 C 350.90625 223.804688 351.425781 223.675781 352.074219 223.417969 C 352.726562 223.160156 353.761719 222.902344 354.671875 222.902344 C 355.582031 222.902344 356.363281 223.417969 356.882812 224.191406 C 357.011719 224.582031 357.140625 224.96875 357.011719 225.613281 C 356.882812 226.261719 356.621094 227.035156 356.230469 227.8125 C 356.101562 228.070312 355.84375 228.457031 355.710938 228.714844 C 355.453125 228.976562 355.324219 229.234375 355.0625 229.621094 C 354.671875 230.007812 354.414062 230.398438 354.152344 230.65625 L 354.023438 230.785156 C 354.023438 230.785156 354.023438 230.785156 353.894531 230.785156 C 353.761719 230.785156 353.894531 230.914062 353.636719 230.527344 C 353.375 230.269531 353.117188 230.007812 352.855469 229.621094 C 352.59375 229.363281 352.335938 228.976562 352.074219 228.714844 C 351.6875 228.199219 351.425781 227.683594 351.167969 227.164062 C 350.777344 226.261719 350.648438 225.484375 350.648438 224.710938 C 350.90625 224.320312 350.90625 223.804688 350.519531 223.546875 C 350.257812 223.289062 349.609375 223.417969 348.960938 224.0625 C 348.179688 224.710938 347.53125 226.261719 347.789062 228.199219 C 347.921875 229.105469 348.179688 230.140625 348.570312 231.042969 C 348.828125 231.558594 348.960938 231.949219 349.21875 232.335938 C 349.480469 232.722656 349.738281 233.238281 350.128906 233.757812 C 350.386719 234.144531 351.296875 235.050781 352.074219 235.4375 C 352.984375 235.953125 353.894531 236.082031 354.933594 235.824219 C 355.453125 235.695312 355.84375 235.566406 356.363281 235.179688 C 356.621094 235.050781 356.75 234.917969 357.011719 234.664062 L 357.269531 234.402344 L 357.53125 234.273438 C 358.050781 233.757812 358.4375 233.238281 358.828125 232.851562 C 359.089844 232.464844 359.476562 231.949219 359.738281 231.558594 C 360 231.042969 360.257812 230.65625 360.515625 230.140625 C 361.167969 228.84375 361.554688 227.554688 361.6875 226.132812 C 361.816406 224.710938 361.425781 223.03125 360.515625 221.738281 C 359.609375 220.445312 358.4375 219.796875 357.269531 219.410156 C 355.972656 219.023438 354.804688 219.152344 353.894531 219.410156 C 352.074219 219.929688 351.035156 221.089844 350.519531 221.867188 C 350.257812 222.773438 350.257812 223.289062 350.519531 223.546875 Z M 350.519531 223.546875 " fill-opacity="1" fill-rule="nonzero"/></g><path fill="#76583b" d="M 187.03125 312.597656 C 185.472656 311.949219 184.433594 312.726562 183.65625 314.015625 C 183.65625 314.148438 183.65625 314.148438 183.523438 314.277344 C 183.523438 314.40625 183.523438 314.40625 183.394531 314.535156 C 182.875 315.957031 183.136719 317.246094 184.695312 317.894531 C 186.125 318.539062 187.292969 317.765625 188.070312 316.472656 C 188.070312 316.34375 188.070312 316.34375 188.199219 316.214844 C 188.199219 316.085938 188.332031 316.085938 188.332031 315.957031 C 188.71875 314.535156 188.457031 313.113281 187.03125 312.597656 Z M 187.03125 312.597656 " fill-opacity="1" fill-rule="nonzero"/><path fill="#76583b" d="M 60.039062 265.550781 C 58.871094 266.714844 59.128906 268.003906 60.039062 269.039062 L 60.296875 269.296875 C 61.335938 270.203125 62.507812 270.460938 63.804688 269.296875 C 64.84375 268.265625 64.714844 266.84375 63.804688 265.808594 L 63.546875 265.550781 C 62.507812 264.648438 61.207031 264.386719 60.039062 265.550781 Z M 60.039062 265.550781 " fill-opacity="1" fill-rule="nonzero"/><g clip-path="url(#8401e5d3ab)"><path fill="#76583b" d="M 122.753906 44.542969 C 121.976562 44.542969 121.328125 45.449219 121.195312 46.742188 C 121.066406 48.035156 121.195312 49.972656 121.976562 52.039062 C 122.105469 52.300781 122.105469 52.429688 122.234375 52.6875 C 122.367188 52.816406 122.367188 53.074219 122.496094 53.332031 C 123.40625 55.273438 124.574219 56.824219 125.613281 57.597656 C 126.652344 58.503906 127.691406 58.632812 128.339844 58.113281 C 129.507812 57.082031 128.339844 54.496094 127.039062 51.394531 L 126.78125 50.75 L 126.652344 50.230469 C 125.222656 47.128906 124.3125 44.542969 122.753906 44.542969 Z M 122.753906 44.542969 " fill-opacity="1" fill-rule="nonzero"/></g><path fill="#76583b" d="M 204.308594 93.527344 C 203.136719 92.363281 201.320312 93.140625 199.503906 94.820312 C 199.375 94.949219 199.375 94.949219 199.242188 95.078125 C 199.113281 95.207031 199.113281 95.207031 198.984375 95.335938 C 197.292969 97.148438 196.515625 98.957031 197.683594 100.121094 C 198.722656 101.152344 200.671875 100.507812 202.488281 98.828125 C 202.617188 98.699219 202.617188 98.699219 202.75 98.570312 C 202.878906 98.4375 202.878906 98.4375 203.007812 98.308594 C 204.695312 96.5 205.476562 94.5625 204.308594 93.527344 Z M 204.308594 93.527344 " fill-opacity="1" fill-rule="nonzero"/><path fill="#76583b" d="M 313.503906 114.335938 C 312.335938 113.171875 311.6875 112.785156 311.425781 112.914062 C 311.296875 113.171875 311.6875 113.820312 312.855469 114.980469 C 313.894531 116.015625 314.675781 116.53125 314.933594 116.402344 C 315.0625 116.144531 314.675781 115.371094 313.503906 114.335938 Z M 313.503906 114.335938 " fill-opacity="1" fill-rule="nonzero"/><path fill="#52381e" d="M 282.347656 72.589844 C 281.960938 72.589844 281.570312 74.269531 280.921875 77.242188 C 280.660156 78.664062 280.273438 80.472656 279.753906 82.542969 C 279.230469 84.609375 278.585938 86.9375 277.414062 89.132812 C 276.894531 90.296875 276.117188 91.332031 275.207031 92.234375 C 274.296875 93.140625 273.257812 93.914062 272.089844 94.5625 C 269.753906 95.726562 266.507812 96.113281 263.390625 95.207031 C 260.273438 94.433594 257.289062 92.496094 255.339844 89.652344 C 254.429688 88.230469 253.78125 86.679688 253.78125 85.128906 C 253.648438 83.578125 254.039062 81.765625 254.949219 80.472656 C 255.597656 79.441406 256.507812 78.535156 257.675781 78.019531 C 258.195312 77.761719 258.714844 77.761719 259.105469 77.761719 C 259.496094 77.761719 259.753906 77.890625 260.273438 78.148438 C 260.792969 78.535156 261.3125 79.183594 261.832031 79.828125 C 262.21875 80.472656 262.609375 81.25 262.871094 82.027344 C 263.390625 83.578125 263.390625 85.386719 263.132812 87.066406 C 262.742188 88.746094 262.21875 90.167969 261.183594 91.460938 C 260.273438 92.753906 258.976562 93.914062 257.675781 94.949219 C 254.949219 96.886719 251.832031 98.308594 248.847656 99.472656 C 245.859375 100.636719 243.132812 101.542969 240.535156 102.316406 C 235.339844 103.738281 231.054688 104.382812 228.070312 104.902344 C 225.082031 105.417969 223.394531 105.675781 223.394531 106.066406 C 223.394531 106.453125 225.082031 106.839844 228.199219 106.96875 C 231.316406 107.097656 235.859375 106.96875 241.445312 105.804688 C 244.171875 105.289062 247.285156 104.515625 250.40625 103.351562 C 253.519531 102.1875 257.027344 101.023438 260.402344 98.699219 C 262.089844 97.535156 263.78125 96.113281 265.078125 94.304688 C 265.726562 93.398438 266.378906 92.363281 266.894531 91.332031 C 267.414062 90.296875 267.675781 89.132812 267.933594 87.96875 C 268.453125 85.644531 268.453125 83.1875 267.675781 80.734375 C 267.285156 79.570312 266.765625 78.277344 266.117188 77.242188 C 265.339844 76.210938 264.558594 75.046875 263.261719 74.140625 C 262.21875 73.367188 260.792969 72.847656 259.496094 72.847656 C 258.195312 72.847656 256.898438 73.109375 255.859375 73.496094 C 253.78125 74.398438 251.960938 75.949219 250.792969 77.890625 C 249.363281 80.214844 248.847656 82.929688 248.972656 85.515625 C 249.105469 88.101562 250.144531 90.554688 251.441406 92.496094 C 254.167969 96.5 258.324219 98.699219 262.351562 99.730469 C 264.429688 100.25 266.507812 100.25 268.453125 99.992188 C 270.402344 99.730469 272.347656 99.214844 274.039062 98.179688 C 275.726562 97.148438 277.15625 95.984375 278.195312 94.691406 C 279.230469 93.269531 280.140625 91.976562 280.660156 90.554688 C 281.832031 87.839844 282.347656 85.257812 282.609375 82.929688 C 282.867188 80.734375 283 78.792969 282.867188 77.242188 C 283 74.269531 282.738281 72.589844 282.347656 72.589844 Z M 282.347656 72.589844 " fill-opacity="1" fill-rule="nonzero"/></svg>